<svg width="132" height="132" viewBox="0 0 132 132" fill="none" xmlns="http://www.w3.org/2000/svg">
<circle cx="66.0111" cy="66.2211" r="65.3471" fill="#D9D9D9"/>
<circle cx="39.3096" cy="61.9517" r="10.8336" fill="#D9D9D9"/>
<circle cx="90.6934" cy="61.9517" r="10.8336" fill="#D9D9D9"/>
<path d="M95.6279 104.332C95.6279 98.2649 92.5075 92.4458 86.9533 88.1554C81.399 83.8649 73.8659 81.4546 66.011 81.4546C58.1561 81.4546 50.6229 83.8649 45.0686 88.1554C39.5144 92.4458 36.394 98.2649 36.394 104.332L47.3979 104.332C47.3979 100.519 49.3589 96.8621 52.8495 94.1658C56.3402 91.4694 61.0745 89.9546 66.011 89.9546C70.9475 89.9546 75.6818 91.4694 79.1724 94.1658C82.663 96.8621 84.624 100.519 84.624 104.332H95.6279Z" fill="#D9D9D9"/>
<rect x="28.0464" y="31.9624" width="27.5021" height="5.79" transform="rotate(24.8371 28.0464 31.9624)" fill="#D9D9D9"/>
<rect width="27.5021" height="5.79" transform="matrix(-0.907505 0.42004 0.42004 0.907505 101.957 31.9624)" fill="#D9D9D9"/>
</svg>
