<svg width="580" height="131" viewBox="0 0 580 131" fill="none" xmlns="http://www.w3.org/2000/svg">
<path d="M62.7231 70.7962C62.7231 69.3242 62.1791 67.9162 61.0911 66.5722C60.0031 65.1642 58.0831 64.3642 55.3311 64.1722C53.5391 66.3482 51.3631 67.4362 48.8031 67.4362C46.6271 67.4362 44.7711 66.6682 43.2351 65.1322C41.6991 63.5962 40.9311 61.7082 40.9311 59.4682C40.9311 57.2282 41.6991 55.3402 43.2351 53.8042C44.7711 52.2682 46.6271 51.5002 48.8031 51.5002C49.9551 51.5002 51.0751 51.8202 52.1631 52.4602C53.3151 53.1002 54.3391 53.8682 55.2351 54.7642C56.6431 54.7002 57.7311 54.4762 58.4991 54.0922C59.2671 53.7082 59.8111 53.2602 60.1311 52.7482C60.5151 52.1722 60.7391 51.5322 60.8031 50.8282C60.8671 50.1242 60.8991 49.4202 60.8991 48.7162V39.0202C60.8991 37.4202 60.3871 35.9482 59.3631 34.6042C58.4031 33.2602 56.7391 32.5882 54.3711 32.5882H34.3071L34.2111 95.9482C34.2111 97.2282 33.6031 98.2202 32.3871 98.9242C31.2351 99.5642 29.9551 99.8842 28.5471 99.8842C24.7711 99.8842 22.8831 98.3482 22.8831 95.2762V28.6522C22.8831 26.3482 23.4591 24.8122 24.6111 24.0442C25.8271 23.2762 27.2671 22.8922 28.9311 22.8922H56.7711C58.4351 22.8922 60.1951 23.2122 62.0511 23.8522C63.9711 24.4922 65.7631 25.3562 67.4271 26.4442H67.3311C68.9951 27.6602 70.2111 29.2602 70.9791 31.2442C71.8111 33.2282 72.2271 35.5322 72.2271 38.1562V49.0042C72.2271 51.5642 71.6831 53.6762 70.5951 55.3402C69.5071 56.9402 68.3551 58.2202 67.1391 59.1802C67.9711 59.6922 68.7711 60.2362 69.5391 60.8122C70.3071 61.3242 70.9471 61.9002 71.4591 62.5402C72.2911 63.4362 72.9311 64.4922 73.3791 65.7082C73.8911 66.9242 74.1471 68.3642 74.1471 70.0282V83.7562C74.1471 89.0042 72.0991 92.8762 68.0031 95.3722C65.9551 96.6522 64.0031 97.6122 62.1471 98.2522C60.3551 98.8922 58.5631 99.2122 56.7711 99.2122H42.5631C41.4751 99.2122 40.6111 98.7642 39.9711 97.8682C39.3951 96.9722 39.1071 95.7882 39.1071 94.3162C39.1071 91.1162 40.4511 89.5162 43.1391 89.5162H56.2911C58.6591 89.5162 60.3231 88.8442 61.2831 87.5002C62.2431 86.1562 62.7231 84.6522 62.7231 82.9882V70.7962ZM113.756 32.3002L92.7321 96.8122V96.7162C92.3481 97.6762 91.8041 98.4762 91.1001 99.1162C90.4601 99.6922 89.6601 99.9802 88.7001 99.9802C88.1881 99.9802 87.6761 99.9162 87.1641 99.7882C86.7161 99.7242 86.2361 99.6282 85.7241 99.5002H85.8201C82.1721 98.3482 80.8281 96.3002 81.7881 93.3562L103.676 26.8282C103.996 25.8042 104.54 24.9402 105.308 24.2362C106.14 23.5322 107.1 23.1162 108.188 22.9882C109.276 22.7962 110.332 22.6682 111.356 22.6042C112.38 22.4762 113.18 22.4122 113.756 22.4122C114.332 22.4122 115.132 22.4762 116.156 22.6042C117.18 22.6682 118.236 22.7642 119.324 22.8922C120.22 23.0202 121.084 23.5002 121.916 24.3322C122.812 25.1642 123.484 25.9962 123.932 26.8282C127.516 37.8362 131.132 48.9402 134.78 60.1402C138.492 71.2762 142.14 82.3482 145.724 93.3562C146.62 96.3002 145.276 98.3482 141.692 99.5002C141.18 99.6282 140.7 99.7242 140.252 99.7882C139.868 99.9162 139.42 99.9802 138.908 99.9802C138.012 99.9802 137.18 99.6922 136.412 99.1162C135.708 98.4762 135.196 97.6762 134.876 96.7162V96.8122L113.756 32.3002ZM120.956 76.0762C120.956 78.1242 120.22 79.8842 118.748 81.3562C117.34 82.7642 115.612 83.4682 113.564 83.4682C111.516 83.4682 109.788 82.7642 108.38 81.3562C106.972 79.8842 106.268 78.1242 106.268 76.0762C106.268 74.0282 106.972 72.3002 108.38 70.8922C109.788 69.4202 111.516 68.6842 113.564 68.6842C115.612 68.6842 117.34 69.4202 118.748 70.8922C120.22 72.3002 120.956 74.0282 120.956 76.0762ZM206.065 83.7562C206.065 88.9402 204.337 92.8122 200.881 95.3722C199.217 96.5882 197.489 97.5482 195.697 98.2522C193.969 98.8922 192.273 99.2122 190.609 99.2122H169.681C168.017 99.2122 166.289 98.8922 164.497 98.2522C162.769 97.5482 161.073 96.5882 159.409 95.3722C157.745 94.0922 156.465 92.5242 155.569 90.6682C154.673 88.7482 154.225 86.4442 154.225 83.7562V38.1562C154.225 35.5962 154.673 33.3562 155.569 31.4362C156.465 29.4522 157.745 27.8522 159.409 26.6362H159.313C160.977 25.5482 162.705 24.6522 164.497 23.9482C166.289 23.2442 168.017 22.8922 169.681 22.8922H190.609C192.273 22.8922 194.001 23.2442 195.793 23.9482C197.585 24.6522 199.313 25.5482 200.977 26.6362H200.881C202.545 27.8522 203.825 29.4522 204.721 31.4362C205.617 33.3562 206.065 35.5962 206.065 38.1562V44.7802C206.065 47.8522 204.145 49.3882 200.305 49.3882C196.529 49.3882 194.641 47.8522 194.641 44.7802V39.0202C194.641 37.4202 194.161 35.9482 193.201 34.6042C192.241 33.2602 190.577 32.5882 188.209 32.5882H172.081C169.713 32.5882 168.049 33.2602 167.089 34.6042C166.129 35.9482 165.649 37.4202 165.649 39.0202V82.9882C165.649 84.6522 166.129 86.1562 167.089 87.5002C168.049 88.8442 169.713 89.5162 172.081 89.5162H188.209C190.577 89.5162 192.241 88.8442 193.201 87.5002C194.161 86.1562 194.641 84.6522 194.641 82.9882V77.4202C194.641 74.4122 196.529 72.9082 200.305 72.9082C204.145 72.9082 206.065 74.4122 206.065 77.4202V83.7562ZM260.554 24.0442C261.514 22.8922 262.602 22.3162 263.818 22.3162C265.162 22.3162 266.538 22.9242 267.946 24.1402C268.65 24.8442 269.226 25.5482 269.674 26.2522C270.186 26.9562 270.442 27.6602 270.442 28.3642C270.442 29.5162 270.026 30.5082 269.194 31.3402L256.33 46.3162L231.274 75.7882V95.0842C231.274 98.1562 229.354 99.6922 225.514 99.6922C221.738 99.6922 219.85 98.1562 219.85 95.0842V27.0202C219.85 23.9482 221.738 22.4122 225.514 22.4122C229.354 22.4122 231.274 23.9482 231.274 27.0202V58.4122L260.554 24.0442ZM246.922 69.6442C246.282 68.7482 245.962 67.6602 245.962 66.3802C245.962 64.4602 246.762 62.9242 248.362 61.7722H248.266C249.546 60.8762 250.826 60.4282 252.106 60.4282C253.322 60.4282 254.346 61.1322 255.178 62.5402L273.706 89.6122L273.61 89.5162C274.186 90.4122 274.474 91.3722 274.474 92.3962C274.474 94.0602 273.642 95.5322 271.978 96.8122H272.074C271.37 97.2602 270.698 97.6122 270.058 97.8682C269.418 98.1242 268.842 98.2522 268.33 98.2522C267.818 98.2522 267.274 98.0602 266.698 97.6762C266.186 97.2922 265.674 96.8122 265.162 96.2362L246.922 69.6442Z" fill="#E93B69"/>
<path d="M352.723 70.7962C352.723 69.3242 352.179 67.9162 351.091 66.5722C350.003 65.1642 348.083 64.3642 345.331 64.1722C343.539 66.3482 341.363 67.4362 338.803 67.4362C336.627 67.4362 334.771 66.6682 333.235 65.1322C331.699 63.5962 330.931 61.7082 330.931 59.4682C330.931 57.2282 331.699 55.3402 333.235 53.8042C334.771 52.2682 336.627 51.5002 338.803 51.5002C339.955 51.5002 341.075 51.8202 342.163 52.4602C343.315 53.1002 344.339 53.8682 345.235 54.7642C346.643 54.7002 347.731 54.4762 348.499 54.0922C349.267 53.7082 349.811 53.2602 350.131 52.7482C350.515 52.1722 350.739 51.5322 350.803 50.8282C350.867 50.1242 350.899 49.4202 350.899 48.7162V39.0202C350.899 37.4202 350.387 35.9482 349.363 34.6042C348.403 33.2602 346.739 32.5882 344.371 32.5882H324.307L324.211 95.9482C324.211 97.2282 323.603 98.2202 322.387 98.9242C321.235 99.5642 319.955 99.8842 318.547 99.8842C314.771 99.8842 312.883 98.3482 312.883 95.2762V28.6522C312.883 26.3482 313.459 24.8122 314.611 24.0442C315.827 23.2762 317.267 22.8922 318.931 22.8922H346.771C348.435 22.8922 350.195 23.2122 352.051 23.8522C353.971 24.4922 355.763 25.3562 357.427 26.4442H357.331C358.995 27.6602 360.211 29.2602 360.979 31.2442C361.811 33.2282 362.227 35.5322 362.227 38.1562V49.0042C362.227 51.5642 361.683 53.6762 360.595 55.3402C359.507 56.9402 358.355 58.2202 357.139 59.1802C357.971 59.6922 358.771 60.2362 359.539 60.8122C360.307 61.3242 360.947 61.9002 361.459 62.5402C362.291 63.4362 362.931 64.4922 363.379 65.7082C363.891 66.9242 364.147 68.3642 364.147 70.0282V83.7562C364.147 89.0042 362.099 92.8762 358.003 95.3722C355.955 96.6522 354.003 97.6122 352.147 98.2522C350.355 98.8922 348.563 99.2122 346.771 99.2122H332.563C331.475 99.2122 330.611 98.7642 329.971 97.8682C329.395 96.9722 329.107 95.7882 329.107 94.3162C329.107 91.1162 330.451 89.5162 333.139 89.5162H346.291C348.659 89.5162 350.323 88.8442 351.283 87.5002C352.243 86.1562 352.723 84.6522 352.723 82.9882V70.7962ZM403.756 32.3002L382.732 96.8122V96.7162C382.348 97.6762 381.804 98.4762 381.1 99.1162C380.46 99.6922 379.66 99.9802 378.7 99.9802C378.188 99.9802 377.676 99.9162 377.164 99.7882C376.716 99.7242 376.236 99.6282 375.724 99.5002H375.82C372.172 98.3482 370.828 96.3002 371.788 93.3562L393.676 26.8282C393.996 25.8042 394.54 24.9402 395.308 24.2362C396.14 23.5322 397.1 23.1162 398.188 22.9882C399.276 22.7962 400.332 22.6682 401.356 22.6042C402.38 22.4762 403.18 22.4122 403.756 22.4122C404.332 22.4122 405.132 22.4762 406.156 22.6042C407.18 22.6682 408.236 22.7642 409.324 22.8922C410.22 23.0202 411.084 23.5002 411.916 24.3322C412.812 25.1642 413.484 25.9962 413.932 26.8282C417.516 37.8362 421.132 48.9402 424.78 60.1402C428.492 71.2762 432.14 82.3482 435.724 93.3562C436.62 96.3002 435.276 98.3482 431.692 99.5002C431.18 99.6282 430.7 99.7242 430.252 99.7882C429.868 99.9162 429.42 99.9802 428.908 99.9802C428.012 99.9802 427.18 99.6922 426.412 99.1162C425.708 98.4762 425.196 97.6762 424.876 96.7162V96.8122L403.756 32.3002ZM410.956 76.0762C410.956 78.1242 410.22 79.8842 408.748 81.3562C407.34 82.7642 405.612 83.4682 403.564 83.4682C401.516 83.4682 399.788 82.7642 398.38 81.3562C396.972 79.8842 396.268 78.1242 396.268 76.0762C396.268 74.0282 396.972 72.3002 398.38 70.8922C399.788 69.4202 401.516 68.6842 403.564 68.6842C405.612 68.6842 407.34 69.4202 408.748 70.8922C410.22 72.3002 410.956 74.0282 410.956 76.0762ZM496.065 83.7562C496.065 88.9402 494.337 92.8122 490.881 95.3722C489.217 96.5882 487.489 97.5482 485.697 98.2522C483.969 98.8922 482.273 99.2122 480.609 99.2122H459.681C458.017 99.2122 456.289 98.8922 454.497 98.2522C452.769 97.5482 451.073 96.5882 449.409 95.3722C447.745 94.0922 446.465 92.5242 445.569 90.6682C444.673 88.7482 444.225 86.4442 444.225 83.7562V38.1562C444.225 35.5962 444.673 33.3562 445.569 31.4362C446.465 29.4522 447.745 27.8522 449.409 26.6362H449.313C450.977 25.5482 452.705 24.6522 454.497 23.9482C456.289 23.2442 458.017 22.8922 459.681 22.8922H480.609C482.273 22.8922 484.001 23.2442 485.793 23.9482C487.585 24.6522 489.313 25.5482 490.977 26.6362H490.881C492.545 27.8522 493.825 29.4522 494.721 31.4362C495.617 33.3562 496.065 35.5962 496.065 38.1562V44.7802C496.065 47.8522 494.145 49.3882 490.305 49.3882C486.529 49.3882 484.641 47.8522 484.641 44.7802V39.0202C484.641 37.4202 484.161 35.9482 483.201 34.6042C482.241 33.2602 480.577 32.5882 478.209 32.5882H462.081C459.713 32.5882 458.049 33.2602 457.089 34.6042C456.129 35.9482 455.649 37.4202 455.649 39.0202V82.9882C455.649 84.6522 456.129 86.1562 457.089 87.5002C458.049 88.8442 459.713 89.5162 462.081 89.5162H478.209C480.577 89.5162 482.241 88.8442 483.201 87.5002C484.161 86.1562 484.641 84.6522 484.641 82.9882V77.4202C484.641 74.4122 486.529 72.9082 490.305 72.9082C494.145 72.9082 496.065 74.4122 496.065 77.4202V83.7562ZM550.554 24.0442C551.514 22.8922 552.602 22.3162 553.818 22.3162C555.162 22.3162 556.538 22.9242 557.946 24.1402C558.65 24.8442 559.226 25.5482 559.674 26.2522C560.186 26.9562 560.442 27.6602 560.442 28.3642C560.442 29.5162 560.026 30.5082 559.194 31.3402L546.33 46.3162L521.274 75.7882V95.0842C521.274 98.1562 519.354 99.6922 515.514 99.6922C511.738 99.6922 509.85 98.1562 509.85 95.0842V27.0202C509.85 23.9482 511.738 22.4122 515.514 22.4122C519.354 22.4122 521.274 23.9482 521.274 27.0202V58.4122L550.554 24.0442ZM536.922 69.6442C536.282 68.7482 535.962 67.6602 535.962 66.3802C535.962 64.4602 536.762 62.9242 538.362 61.7722H538.266C539.546 60.8762 540.826 60.4282 542.106 60.4282C543.322 60.4282 544.346 61.1322 545.178 62.5402L563.706 89.6122L563.61 89.5162C564.186 90.4122 564.474 91.3722 564.474 92.3962C564.474 94.0602 563.642 95.5322 561.978 96.8122H562.074C561.37 97.2602 560.698 97.6122 560.058 97.8682C559.418 98.1242 558.842 98.2522 558.33 98.2522C557.818 98.2522 557.274 98.0602 556.698 97.6762C556.186 97.2922 555.674 96.8122 555.162 96.2362L536.922 69.6442Z" fill="#621529"/>
</svg>
