<svg width="1200" height="100" viewBox="0 0 1200 100" fill="none" xmlns="http://www.w3.org/2000/svg">
<path d="M10.6324 86.5735C10.6324 82.9995 18.7719 78.7666 22.3459 78.7666C25.92 78.7666 25.3608 78.1947 25.3608 81.7687C25.3608 85.3428 20.6778 93.0449 17.1038 93.0449C13.5297 93.0449 10.6324 90.1476 10.6324 86.5735Z" fill="#4751AF"/>
<path d="M89.2045 86.5735C89.2045 82.9995 81.065 78.7666 77.491 78.7666C73.9169 78.7666 74.4761 78.1947 74.4761 81.7687C74.4761 85.3428 79.1591 93.0449 82.7331 93.0449C86.3072 93.0449 89.2045 90.1476 89.2045 86.5735Z" fill="#4751AF"/>
<path d="M89.2045 13.6272C89.2045 17.2012 81.065 21.4341 77.491 21.4341C73.9169 21.4341 74.4761 22.006 74.4761 18.4319C74.4761 14.8579 79.1591 7.15576 82.7331 7.15576C86.3072 7.15576 89.2045 10.0531 89.2045 13.6272Z" fill="#4751AF"/>
<path d="M10.6324 13.6272C10.6324 17.2012 18.7719 21.4341 22.3459 21.4341C25.92 21.4341 25.3608 22.006 25.3608 18.4319C25.3608 14.8579 20.6778 7.15576 17.1038 7.15576C13.5297 7.15576 10.6324 10.0531 10.6324 13.6272Z" fill="#4751AF"/>
<circle cx="50" cy="50" r="50" fill="url(#paint0_radial)"/>
<path d="M105.387 89.9905C105.387 86.4164 113.527 82.1836 117.101 82.1836C120.675 82.1836 120.116 81.6117 120.116 85.1857C120.116 88.7598 115.433 96.4619 111.859 96.4619C108.285 96.4619 105.387 93.5646 105.387 89.9905Z" fill="#4751AF"/>
<path d="M197.584 89.9905C197.584 86.4164 189.445 82.1836 185.871 82.1836C182.297 82.1836 182.856 81.6117 182.856 85.1857C182.856 88.7598 187.539 96.4619 191.113 96.4619C194.687 96.4619 197.584 93.5646 197.584 89.9905Z" fill="#4751AF"/>
<path d="M197.584 8.71604C197.584 12.2901 189.445 16.523 185.871 16.523C182.297 16.523 182.856 17.0949 182.856 13.5208C182.856 9.94675 187.539 2.24463 191.113 2.24463C194.687 2.24463 197.584 5.14198 197.584 8.71604Z" fill="#4751AF"/>
<path d="M105.387 8.71604C105.387 12.2901 113.527 16.523 117.101 16.523C120.675 16.523 120.116 17.0949 120.116 13.5208C120.116 9.94675 115.433 2.24463 111.859 2.24463C108.285 2.24463 105.387 5.14198 105.387 8.71604Z" fill="#4751AF"/>
<circle cx="150" cy="50" r="50" fill="url(#paint1_radial)"/>
<circle cx="350" cy="50" r="50" fill="url(#paint2_radial)"/>
<path d="M320.149 88.6213C320.149 92.1954 312.009 96.4282 308.435 96.4282C304.861 96.4282 305.42 97.0001 305.42 93.4261C305.42 89.852 310.103 82.1499 313.677 82.1499C317.252 82.1499 320.149 85.0473 320.149 88.6213Z" fill="#4751AF"/>
<path d="M379.233 88.6213C379.233 92.1954 387.372 96.4282 390.947 96.4282C394.521 96.4282 393.961 97.0001 393.961 93.4261C393.961 89.852 389.278 82.1499 385.704 82.1499C382.13 82.1499 379.233 85.0473 379.233 88.6213Z" fill="#4751AF"/>
<path d="M379.233 10.0852C379.233 6.51117 387.372 2.27831 390.947 2.27831C394.521 2.27831 393.961 1.7064 393.961 5.28046C393.961 8.85452 389.278 16.5566 385.704 16.5566C382.13 16.5566 379.233 13.6593 379.233 10.0852Z" fill="#4751AF"/>
<path d="M320.149 10.0852C320.149 6.51117 312.009 2.27831 308.435 2.27831C304.861 2.27831 305.42 1.7064 305.42 5.28046C305.42 8.85452 310.103 16.5566 313.677 16.5566C317.252 16.5566 320.149 13.6593 320.149 10.0852Z" fill="#4751AF"/>
<circle cx="450" cy="50" r="50" fill="url(#paint3_radial)"/>
<path d="M424.76 84.5813C424.76 88.1553 416.621 92.3882 413.047 92.3882C409.473 92.3882 410.032 92.9601 410.032 89.386C410.032 85.812 414.715 78.1099 418.289 78.1099C421.863 78.1099 424.76 81.0072 424.76 84.5813Z" fill="#4751AF"/>
<path d="M476.09 84.5813C476.09 88.1553 484.23 92.3882 487.804 92.3882C491.378 92.3882 490.819 92.9601 490.819 89.386C490.819 85.812 486.136 78.1099 482.562 78.1099C478.988 78.1099 476.09 81.0072 476.09 84.5813Z" fill="#4751AF"/>
<path d="M476.09 14.5286C476.09 10.9545 484.23 6.72167 487.804 6.72167C491.378 6.72167 490.819 6.14976 490.819 9.72382C490.819 13.2979 486.136 21 482.562 21C478.988 21 476.09 18.1027 476.09 14.5286Z" fill="#4751AF"/>
<path d="M424.76 14.5286C424.76 10.9545 416.621 6.72167 413.047 6.72167C409.473 6.72167 410.032 6.14976 410.032 9.72382C410.032 13.2979 414.715 21 418.289 21C421.863 21 424.76 18.1027 424.76 14.5286Z" fill="#4751AF"/>
<path d="M300 6.47141C300 10.0455 297.103 12.9428 293.529 12.9428C289.955 12.9428 287.058 10.0455 287.058 6.47141C287.058 2.89735 289.955 0 293.529 0C297.103 0 300 2.89735 300 6.47141Z" fill="#4751AF"/>
<path d="M212.943 6.47141C212.943 10.0455 210.045 12.9428 206.471 12.9428C202.897 12.9428 200 10.0455 200 6.47141C200 2.89735 202.897 0 206.471 0C210.045 0 212.943 2.89735 212.943 6.47141Z" fill="#4751AF"/>
<path d="M300 93.5285C300 97.1026 297.103 99.9999 293.529 99.9999C289.955 99.9999 287.058 97.1026 287.058 93.5285C287.058 89.9545 289.955 87.0571 293.529 87.0571C297.103 87.0571 300 89.9545 300 93.5285Z" fill="#4751AF"/>
<path d="M212.943 93.5285C212.943 97.1026 210.045 99.9999 206.471 99.9999C202.897 99.9999 200 97.1026 200 93.5285C200 89.9545 202.897 87.0571 206.471 87.0571C210.045 87.0571 212.943 89.9545 212.943 93.5285Z" fill="#4751AF"/>
<circle cx="250" cy="50" r="50" fill="url(#paint4_radial)"/>
<circle cx="550" cy="50" r="50" fill="url(#paint5_radial)"/>
<path d="M534.76 75.8977C534.76 79.4717 526.621 83.7046 523.047 83.7046C519.473 83.7046 520.032 84.2765 520.032 80.7024C520.032 77.1284 524.715 69.4263 528.289 69.4263C531.863 69.4263 534.76 72.3236 534.76 75.8977Z" fill="#4751AF"/>
<path d="M565.895 75.8977C565.895 79.4717 574.035 83.7046 577.609 83.7046C581.183 83.7046 580.624 84.2765 580.624 80.7024C580.624 77.1284 575.941 69.4263 572.366 69.4263C568.792 69.4263 565.895 72.3236 565.895 75.8977Z" fill="#4751AF"/>
<path d="M565.895 24.5286C565.895 20.9545 574.035 16.7217 577.609 16.7217C581.183 16.7217 580.624 16.1498 580.624 19.7238C580.624 23.2979 575.941 31 572.366 31C568.792 31 565.895 28.1027 565.895 24.5286Z" fill="#4751AF"/>
<path d="M534.76 24.5286C534.76 20.9545 526.621 16.7217 523.047 16.7217C519.473 16.7217 520.032 16.1498 520.032 19.7238C520.032 23.2979 524.715 31 528.289 31C531.863 31 534.76 28.1027 534.76 24.5286Z" fill="#4751AF"/>
<circle cx="650" cy="50" r="50" fill="url(#paint6_radial)"/>
<path d="M639.76 70.7649C639.76 74.3389 631.621 78.5718 628.047 78.5718C624.473 78.5718 625.032 79.1437 625.032 75.5696C625.032 71.9956 629.715 64.2935 633.289 64.2935C636.863 64.2935 639.76 67.1908 639.76 70.7649Z" fill="#4751AF"/>
<path d="M663.121 70.7649C663.121 74.3389 671.26 78.5718 674.834 78.5718C678.408 78.5718 677.849 79.1437 677.849 75.5696C677.849 71.9956 673.166 64.2935 669.592 64.2935C666.018 64.2935 663.121 67.1908 663.121 70.7649Z" fill="#4751AF"/>
<path d="M663.121 29.5286C663.121 25.9545 671.26 21.7217 674.834 21.7217C678.408 21.7217 677.849 21.1498 677.849 24.7238C677.849 28.2979 673.166 36 669.592 36C666.018 36 663.121 33.1027 663.121 29.5286Z" fill="#4751AF"/>
<path d="M639.76 29.5286C639.76 25.9545 631.621 21.7217 628.047 21.7217C624.473 21.7217 625.032 21.1498 625.032 24.7238C625.032 28.2979 629.715 36 633.289 36C636.863 36 639.76 33.1027 639.76 29.5286Z" fill="#4751AF"/>
<circle cx="750" cy="50" r="50" fill="url(#paint7_radial)"/>
<path d="M744.76 61.1931C744.76 64.7672 736.621 69 733.047 69C729.473 69 730.032 69.5719 730.032 65.9979C730.032 62.4238 734.715 54.7217 738.289 54.7217C741.863 54.7217 744.76 57.619 744.76 61.1931Z" fill="#4751AF"/>
<path d="M755.741 61.1931C755.741 64.7672 763.88 69 767.454 69C771.028 69 770.469 69.5719 770.469 65.9979C770.469 62.4238 765.786 54.7217 762.212 54.7217C758.638 54.7217 755.741 57.619 755.741 61.1931Z" fill="#4751AF"/>
<path d="M755.741 34.5286C755.741 30.9545 763.88 26.7217 767.454 26.7217C771.028 26.7217 770.469 26.1498 770.469 29.7238C770.469 33.2979 765.786 41 762.212 41C758.638 41 755.741 38.1027 755.741 34.5286Z" fill="#4751AF"/>
<path d="M744.76 34.5286C744.76 30.9545 736.621 26.7217 733.047 26.7217C729.473 26.7217 730.032 26.1498 730.032 29.7238C730.032 33.2979 734.715 41 738.289 41C741.863 41 744.76 38.1027 744.76 34.5286Z" fill="#4751AF"/>
<circle cx="850" cy="50" r="50" fill="url(#paint8_radial)"/>
<path d="M849.76 58.4187C849.76 61.9927 841.621 66.2256 838.047 66.2256C834.473 66.2256 835.032 66.7975 835.032 63.2234C835.032 59.6494 839.715 51.9473 843.289 51.9473C846.863 51.9473 849.76 54.8446 849.76 58.4187Z" fill="#4751AF"/>
<path d="M853.521 58.4187C853.521 61.9927 861.661 66.2256 865.235 66.2256C868.809 66.2256 868.249 66.7975 868.249 63.2234C868.249 59.6494 863.567 51.9473 859.992 51.9473C856.418 51.9473 853.521 54.8446 853.521 58.4187Z" fill="#4751AF"/>
<path d="M853.521 39.5286C853.521 35.9545 861.661 31.7217 865.235 31.7217C868.809 31.7217 868.249 31.1498 868.249 34.7238C868.249 38.2979 863.567 46 859.992 46C856.418 46 853.521 43.1027 853.521 39.5286Z" fill="#4751AF"/>
<path d="M849.76 39.5286C849.76 35.9545 841.621 31.7217 838.047 31.7217C834.473 31.7217 835.032 31.1498 835.032 34.7238C835.032 38.2979 839.715 46 843.289 46C846.863 46 849.76 43.1027 849.76 39.5286Z" fill="#4751AF"/>
<circle cx="950" cy="50" r="50" fill="url(#paint9_radial)"/>
<path d="M954.761 50.3152C954.761 53.8892 946.622 58.1221 943.048 58.1221C939.474 58.1221 940.033 58.694 940.033 55.1199C940.033 51.5459 944.716 43.8438 948.29 43.8438C951.864 43.8438 954.761 46.7411 954.761 50.3152Z" fill="#4751AF"/>
<path d="M947.38 50.3152C947.38 53.8892 955.52 58.1221 959.094 58.1221C962.668 58.1221 962.109 58.694 962.109 55.1199C962.109 51.5459 957.426 43.8438 953.852 43.8438C950.278 43.8438 947.38 46.7411 947.38 50.3152Z" fill="#4751AF"/>
<path d="M947.38 44.5286C947.38 40.9545 955.52 36.7217 959.094 36.7217C962.668 36.7217 962.109 36.1498 962.109 39.7238C962.109 43.2979 957.426 51 953.852 51C950.278 51 947.38 48.1027 947.38 44.5286Z" fill="#4751AF"/>
<path d="M954.76 44.5286C954.76 40.9545 946.621 36.7217 943.047 36.7217C939.473 36.7217 940.032 36.1498 940.032 39.7238C940.032 43.2979 944.715 51 948.289 51C951.863 51 954.76 48.1027 954.76 44.5286Z" fill="#4751AF"/>
<circle cx="1050" cy="50" r="50" fill="url(#paint10_radial)"/>
<circle cx="1050" cy="49.9999" r="8.08043" fill="#4751AF"/>
<circle cx="1150" cy="50" r="50" fill="url(#paint11_radial)"/>
<defs>
<radialGradient id="paint0_radial" cx="0" cy="0" r="1" gradientUnits="userSpaceOnUse" gradientTransform="translate(50 50) rotate(90) scale(50)">
<stop stop-color="#316D49"/>
<stop offset="1" stop-color="#1F4A30"/>
</radialGradient>
<radialGradient id="paint1_radial" cx="0" cy="0" r="1" gradientUnits="userSpaceOnUse" gradientTransform="translate(150 50) rotate(90) scale(50)">
<stop stop-color="#316D49"/>
<stop offset="1" stop-color="#1F4A30"/>
</radialGradient>
<radialGradient id="paint2_radial" cx="0" cy="0" r="1" gradientUnits="userSpaceOnUse" gradientTransform="translate(350 50) rotate(90) scale(50)">
<stop stop-color="#316D49"/>
<stop offset="1" stop-color="#1F4A30"/>
</radialGradient>
<radialGradient id="paint3_radial" cx="0" cy="0" r="1" gradientUnits="userSpaceOnUse" gradientTransform="translate(450 50) rotate(90) scale(50)">
<stop stop-color="#316D49"/>
<stop offset="1" stop-color="#1F4A30"/>
</radialGradient>
<radialGradient id="paint4_radial" cx="0" cy="0" r="1" gradientUnits="userSpaceOnUse" gradientTransform="translate(250 50) rotate(90) scale(50)">
<stop stop-color="#316D49"/>
<stop offset="1" stop-color="#1F4A30"/>
</radialGradient>
<radialGradient id="paint5_radial" cx="0" cy="0" r="1" gradientUnits="userSpaceOnUse" gradientTransform="translate(550 50) rotate(90) scale(50)">
<stop stop-color="#316D49"/>
<stop offset="1" stop-color="#1F4A30"/>
</radialGradient>
<radialGradient id="paint6_radial" cx="0" cy="0" r="1" gradientUnits="userSpaceOnUse" gradientTransform="translate(650 50) rotate(90) scale(50)">
<stop stop-color="#316D49"/>
<stop offset="1" stop-color="#1F4A30"/>
</radialGradient>
<radialGradient id="paint7_radial" cx="0" cy="0" r="1" gradientUnits="userSpaceOnUse" gradientTransform="translate(750 50) rotate(90) scale(50)">
<stop stop-color="#316D49"/>
<stop offset="1" stop-color="#1F4A30"/>
</radialGradient>
<radialGradient id="paint8_radial" cx="0" cy="0" r="1" gradientUnits="userSpaceOnUse" gradientTransform="translate(850 50) rotate(90) scale(50)">
<stop stop-color="#316D49"/>
<stop offset="1" stop-color="#1F4A30"/>
</radialGradient>
<radialGradient id="paint9_radial" cx="0" cy="0" r="1" gradientUnits="userSpaceOnUse" gradientTransform="translate(950 50) rotate(90) scale(50)">
<stop stop-color="#316D49"/>
<stop offset="1" stop-color="#1F4A30"/>
</radialGradient>
<radialGradient id="paint10_radial" cx="0" cy="0" r="1" gradientUnits="userSpaceOnUse" gradientTransform="translate(1050 50) rotate(90) scale(50)">
<stop stop-color="#316D49"/>
<stop offset="1" stop-color="#1F4A30"/>
</radialGradient>
<radialGradient id="paint11_radial" cx="0" cy="0" r="1" gradientUnits="userSpaceOnUse" gradientTransform="translate(1150 50) rotate(90) scale(50)">
<stop stop-color="#499A6A"/>
<stop offset="1" stop-color="#398859"/>
</radialGradient>
</defs>
</svg>
