<svg width="131" height="132" viewBox="0 0 131 132" fill="none" xmlns="http://www.w3.org/2000/svg">
<circle cx="65.4184" cy="65.6571" r="65.3471" fill="#EE3969"/>
<circle cx="65.4182" cy="65.657" r="56.4153" fill="#42131F"/>
<circle cx="38.7164" cy="61.3878" r="10.8336" fill="#EE3969"/>
<circle cx="90.1002" cy="61.3878" r="10.8336" fill="#EE3969"/>
<path d="M95.0356 103.768C95.0356 97.7009 91.9152 91.8818 86.361 87.5914C80.8067 83.301 73.2736 80.8906 65.4187 80.8906C57.5638 80.8906 50.0306 83.301 44.4764 87.5914C38.9221 91.8818 35.8018 97.7009 35.8018 103.768L46.8056 103.768C46.8056 99.9552 48.7666 96.2982 52.2572 93.6018C55.7479 90.9054 60.4822 89.3906 65.4187 89.3906C70.3552 89.3906 75.0895 90.9054 78.5801 93.6018C82.0707 96.2982 84.0318 99.9552 84.0318 103.768H95.0356Z" fill="#EE3969"/>
<rect x="27.4531" y="31.3984" width="27.5021" height="5.79" transform="rotate(24.8371 27.4531 31.3984)" fill="#EE3969"/>
<rect width="27.5021" height="5.79" transform="matrix(-0.907505 0.42004 0.42004 0.907505 101.363 31.3984)" fill="#EE3969"/>
</svg>
