<svg width="570" height="131" viewBox="0 0 570 131" fill="none" xmlns="http://www.w3.org/2000/svg">
<path d="M60.1673 65.2947C60.1673 62.1587 62.0873 60.5907 65.9272 60.5907C69.7033 60.5907 71.5913 62.0947 71.5913 65.1027V84.5907C71.5913 89.7747 69.8633 93.6467 66.4073 96.2067C64.7433 97.4227 63.0153 98.3827 61.2233 99.0867C59.4953 99.7267 57.7993 100.047 56.1353 100.047H36.1673C34.5033 100.047 32.7753 99.7267 30.9833 99.0867C29.2553 98.3827 27.5593 97.4227 25.8953 96.2067C24.2313 94.9267 22.9513 93.3587 22.0553 91.5027C21.1593 89.5827 20.7113 87.2787 20.7113 84.5907V38.9907C20.7113 36.3667 21.1593 34.0947 22.0553 32.1747C23.0153 30.2547 24.2953 28.6867 25.8953 27.4707H25.7993C27.4633 26.3827 29.1913 25.4867 30.9833 24.7827C32.7753 24.0787 34.5033 23.7267 36.1673 23.7267H55.1753C56.8393 23.7267 58.5673 24.0787 60.3593 24.7827C62.1513 25.4867 63.8793 26.3827 65.5433 27.4707H65.4473C68.8393 29.9667 70.5353 33.8067 70.5353 38.9907V45.6147C70.5353 48.6867 68.6473 50.2227 64.8713 50.2227C61.0953 50.2227 59.2073 48.6867 59.2073 45.6147V39.8547C59.2073 38.2547 58.7273 36.7827 57.7673 35.4387C56.8073 34.0947 55.1433 33.4227 52.7753 33.4227H38.6633C36.2313 33.4227 34.5353 34.0947 33.5753 35.4387C32.6153 36.7827 32.1353 38.2547 32.1353 39.8547V83.8227C32.1353 84.6547 32.2313 85.4547 32.4233 86.2227C32.6793 86.9907 33.0633 87.6947 33.5753 88.3347C34.0873 88.9107 34.7593 89.3907 35.5913 89.7747C36.4233 90.1587 37.4473 90.3507 38.6633 90.3507H53.7353C56.1033 90.3507 57.7673 89.6787 58.7273 88.3347C59.6873 86.9907 60.1673 85.4867 60.1673 83.8227V65.2947ZM55.6553 64.2387C55.6553 65.3267 55.4313 66.3827 54.9833 67.4067C54.5993 68.3667 54.0233 69.1987 53.2553 69.9027C52.5513 70.6067 51.7193 71.1827 50.7593 71.6307C49.7993 72.0147 48.7433 72.2067 47.5913 72.2067C45.4153 72.2067 43.5593 71.4387 42.0233 69.9027C40.4873 68.3667 39.7193 66.4787 39.7193 64.2387C39.7193 62.0627 40.4873 60.2067 42.0233 58.6707C43.5593 57.1347 45.4153 56.3667 47.5913 56.3667C48.7433 56.3667 49.7993 56.5907 50.7593 57.0387C51.7193 57.4227 52.5513 57.9667 53.2553 58.6707C54.0233 59.3747 54.5993 60.2067 54.9833 61.1667C55.4313 62.1267 55.6553 63.1507 55.6553 64.2387ZM111.584 33.1347L90.5603 97.6467V97.5507C90.1763 98.5107 89.6323 99.3107 88.9283 99.9507C88.2883 100.527 87.4883 100.815 86.5283 100.815C86.0163 100.815 85.5043 100.751 84.9922 100.623C84.5443 100.559 84.0643 100.463 83.5523 100.335H83.6483C80.0003 99.1827 78.6562 97.1347 79.6163 94.1907L101.504 27.6627C101.824 26.6387 102.368 25.7747 103.136 25.0707C103.968 24.3667 104.928 23.9507 106.016 23.8227C107.104 23.6307 108.16 23.5027 109.184 23.4387C110.208 23.3107 111.008 23.2467 111.584 23.2467C112.16 23.2467 112.96 23.3107 113.984 23.4387C115.008 23.5027 116.064 23.5987 117.152 23.7267C118.048 23.8547 118.912 24.3347 119.744 25.1667C120.64 25.9987 121.312 26.8307 121.76 27.6627C125.344 38.6707 128.96 49.7747 132.608 60.9747C136.32 72.1107 139.968 83.1827 143.552 94.1907C144.448 97.1347 143.104 99.1827 139.52 100.335C139.008 100.463 138.528 100.559 138.08 100.623C137.696 100.751 137.248 100.815 136.736 100.815C135.84 100.815 135.008 100.527 134.24 99.9507C133.536 99.3107 133.024 98.5107 132.704 97.5507V97.6467L111.584 33.1347ZM118.784 76.9107C118.784 78.9587 118.048 80.7187 116.576 82.1907C115.168 83.5987 113.44 84.3027 111.392 84.3027C109.344 84.3027 107.616 83.5987 106.208 82.1907C104.8 80.7187 104.096 78.9587 104.096 76.9107C104.096 74.8627 104.8 73.1347 106.208 71.7267C107.616 70.2547 109.344 69.5187 111.392 69.5187C113.44 69.5187 115.168 70.2547 116.576 71.7267C118.048 73.1347 118.784 74.8627 118.784 76.9107ZM210.997 23.2467C213.045 23.2467 215.285 23.7267 217.717 24.6867C219.957 25.5827 221.077 27.2787 221.077 29.7747V95.9187C221.077 98.9907 219.189 100.527 215.413 100.527C211.637 100.527 209.749 98.9907 209.749 95.9187V46.5747L206.965 46.2867L203.125 58.7667L191.605 97.1667C190.901 99.4067 189.173 100.495 186.421 100.431C185.205 100.367 184.149 100.047 183.253 99.4707C182.357 98.8947 181.749 98.0627 181.429 96.9747L174.517 74.6067C173.109 70.1907 171.701 65.7107 170.293 61.1667C168.885 56.5587 167.349 51.4707 165.685 45.9027L162.901 46.2867V95.9187C162.901 98.9907 161.013 100.527 157.237 100.527C153.461 100.527 151.573 98.9907 151.573 95.9187V29.7747C151.573 27.3427 152.693 25.6467 154.933 24.6867C157.301 23.7267 159.573 23.2787 161.749 23.3427C162.709 23.3427 163.701 23.4707 164.725 23.7267C165.749 23.9827 166.709 24.3667 167.605 24.8787C168.501 25.3267 169.301 25.9347 170.005 26.7027C170.709 27.4067 171.253 28.2387 171.637 29.1987L186.709 80.5587C187.797 76.7827 188.949 72.6867 190.165 68.2707C191.381 63.8547 192.629 59.3747 193.909 54.8307C195.189 50.2867 196.437 45.8067 197.653 41.3907C198.933 36.9107 200.117 32.7507 201.205 28.9107C201.589 28.0147 202.133 27.2147 202.837 26.5107C203.541 25.8067 204.341 25.2307 205.237 24.7827C206.133 24.2707 207.061 23.8867 208.021 23.6307C209.045 23.3747 210.037 23.2467 210.997 23.2467ZM240.793 100.047C238.425 100.047 236.825 99.4387 235.993 98.2227C235.161 97.0067 234.745 95.6627 234.745 94.1907V29.4867C234.745 28.0147 235.161 26.7027 235.993 25.5507C236.825 24.3347 238.425 23.7267 240.793 23.7267H274.201C276.569 23.7267 277.817 25.3267 277.945 28.5267C278.073 31.7907 276.825 33.4227 274.201 33.4227H246.073V90.3507H275.929C278.297 90.3507 279.513 91.9187 279.577 95.0547C279.705 98.3827 278.489 100.047 275.929 100.047H240.793ZM270.649 60.3027C270.649 62.5427 269.849 64.4307 268.249 65.9667C266.713 67.5027 264.825 68.2707 262.585 68.2707C260.409 68.2707 258.553 67.5027 257.017 65.9667C255.481 64.4307 254.713 62.5427 254.713 60.3027C254.713 58.0627 255.481 56.1747 257.017 54.6387C258.553 53.1027 260.409 52.3347 262.585 52.3347C264.825 52.3347 266.713 53.1027 268.249 54.6387C269.849 56.1747 270.649 58.0627 270.649 60.3027ZM355.031 23.7267C356.695 23.7267 358.423 24.0787 360.215 24.7827C362.007 25.4867 363.735 26.3827 365.399 27.4707H365.302C366.967 28.6867 368.247 30.2867 369.143 32.2707C370.039 34.1907 370.487 36.4307 370.487 38.9907V84.5907C370.487 89.7747 368.759 93.6467 365.302 96.2067C363.639 97.4227 361.911 98.3827 360.119 99.0867C358.391 99.7267 356.695 100.047 355.031 100.047H334.103C332.439 100.047 330.711 99.7267 328.919 99.0867C327.191 98.3827 325.495 97.4227 323.831 96.2067C322.167 94.9267 320.887 93.3587 319.991 91.5027C319.095 89.5827 318.647 87.2787 318.647 84.5907V38.9907C318.647 36.4307 319.095 34.1907 319.991 32.2707C320.887 30.2867 322.167 28.6867 323.831 27.4707H323.734C325.399 26.3827 327.127 25.4867 328.919 24.7827C330.711 24.0787 332.439 23.7267 334.103 23.7267H355.031ZM352.631 90.3507C354.999 90.3507 356.663 89.6787 357.623 88.3347C358.583 86.9907 359.062 85.4867 359.062 83.8227V39.8547C359.062 38.2547 358.583 36.7827 357.623 35.4387C356.663 34.0947 354.999 33.4227 352.631 33.4227H336.503C334.135 33.4227 332.471 34.0947 331.511 35.4387C330.551 36.7827 330.071 38.2547 330.071 39.8547V83.8227C330.071 85.4867 330.551 86.9907 331.511 88.3347C332.471 89.6787 334.135 90.3507 336.503 90.3507H352.631ZM407.584 100.431C406.304 100.431 404.928 100.239 403.456 99.8547C402.048 99.4067 401.024 98.6067 400.384 97.4547C398.912 92.4627 397.376 87.3427 395.776 82.0947C394.176 76.8467 392.576 71.6947 390.976 66.6387C389.184 60.6867 387.264 54.5107 385.216 48.1107C383.168 41.6467 381.248 35.4707 379.456 29.5827C379.072 28.1747 379.296 26.9587 380.128 25.9347C380.96 24.8467 382.144 24.0467 383.68 23.5347C384.64 23.2787 385.472 23.1507 386.176 23.1507C388.352 23.1507 389.76 24.2387 390.4 26.4147L397.504 49.1667C398.144 51.4707 398.88 53.9987 399.712 56.7507C400.608 59.5027 401.504 62.3187 402.4 65.1987C403.296 68.0787 404.192 70.9587 405.088 73.8387C405.984 76.6547 406.816 79.2787 407.584 81.7107C408.8 77.6787 410.112 73.3267 411.52 68.6547C412.992 63.9187 414.464 59.1187 415.936 54.2547C417.472 49.3907 418.976 44.5907 420.448 39.8547C421.92 35.0547 423.296 30.5747 424.576 26.4147C425.28 24.2387 426.656 23.1507 428.704 23.1507C429.472 23.1507 430.368 23.2787 431.392 23.5347C434.912 24.4947 436.288 26.5107 435.52 29.5827C432.064 40.7827 428.576 52.0787 425.056 63.4707C421.536 74.8627 418.048 86.1907 414.592 97.4547C414.08 98.7347 413.12 99.5667 411.712 99.9507C410.368 100.271 408.992 100.431 407.584 100.431ZM450.793 100.047C448.425 100.047 446.825 99.4387 445.993 98.2227C445.161 97.0067 444.745 95.6627 444.745 94.1907V29.4867C444.745 28.0147 445.161 26.7027 445.993 25.5507C446.825 24.3347 448.425 23.7267 450.793 23.7267H484.201C486.569 23.7267 487.817 25.3267 487.945 28.5267C488.073 31.7907 486.825 33.4227 484.201 33.4227H456.073V90.3507H485.929C488.297 90.3507 489.513 91.9187 489.577 95.0547C489.705 98.3827 488.489 100.047 485.929 100.047H450.793ZM480.649 60.3027C480.649 62.5427 479.849 64.4307 478.249 65.9667C476.713 67.5027 474.825 68.2707 472.585 68.2707C470.409 68.2707 468.553 67.5027 467.017 65.9667C465.481 64.4307 464.713 62.5427 464.713 60.3027C464.713 58.0627 465.481 56.1747 467.017 54.6387C468.553 53.1027 470.409 52.3347 472.585 52.3347C474.825 52.3347 476.713 53.1027 478.249 54.6387C479.849 56.1747 480.649 58.0627 480.649 60.3027ZM527.129 68.3667H519.737C518.649 68.3667 517.785 67.9507 517.145 67.1187C516.569 66.2227 516.281 65.0387 516.281 63.5667C516.281 60.3027 517.625 58.6707 520.313 58.6707H531.545C533.913 58.6707 535.577 57.9987 536.537 56.6547C537.497 55.3107 537.977 53.8387 537.977 52.2387V39.8547C537.977 38.2547 537.497 36.7827 536.537 35.4387C535.577 34.0947 533.913 33.4227 531.545 33.4227H511.289V96.0147C511.289 99.0867 509.401 100.623 505.625 100.623C501.849 100.623 499.961 99.0867 499.961 96.0147V29.4867C499.961 27.1827 500.537 25.6467 501.689 24.8787C502.905 24.1107 504.345 23.7267 506.009 23.7267H533.945C535.609 23.7267 537.337 24.0787 539.129 24.7827C540.921 25.4867 542.649 26.3827 544.313 27.4707H544.217C545.881 28.6867 547.161 30.2867 548.057 32.2707C548.953 34.1907 549.401 36.4307 549.401 38.9907V53.0067C549.401 58.1907 547.673 62.0627 544.217 64.6227C543.513 65.1347 542.745 65.6147 541.913 66.0627C541.145 66.5107 540.345 66.9587 539.513 67.4067L554.873 92.7507C555.065 93.0707 555.257 93.4867 555.449 93.9987C555.641 94.5107 555.737 94.9267 555.737 95.2467C555.737 96.7827 554.649 98.2547 552.473 99.6627V99.5667C551.001 100.463 549.753 100.911 548.729 100.911C547.257 100.911 546.073 100.175 545.177 98.7027L545.273 98.7987L527.129 68.3667Z" fill="#E93B69"/>
</svg>
