<svg width="49" height="42" viewBox="0 0 49 42" fill="none" xmlns="http://www.w3.org/2000/svg">
<path fill-rule="evenodd" clip-rule="evenodd" d="M24.4918 7.43555C24.8961 6.84033 26.3746 5.20947 29.0562 3.44727C31.0953 1.8457 33.6529 0.889648 36.4156 0.889648C41.483 0.889648 45.7467 4.10693 47.3424 8.62549C47.6822 9.58789 47.901 10.6099 47.9801 11.6719C48.9127 19.769 45.1432 33.603 23.8795 41.9492C2.91269 33.6035 -0.366604 19.7695 0.853122 11.6724C0.888278 11.3511 0.93613 11.0337 0.996677 10.7202C1.13535 9.99756 1.33847 9.29736 1.59922 8.62598C3.35508 4.10742 7.733 0.890137 12.8004 0.890137C15.5631 0.890137 18.0865 1.84619 20.0689 3.44775C22.6881 5.20996 24.109 6.84082 24.4918 7.43555Z" fill="#C50505" style="mix-blend-mode:darken"/>
</svg>
