<svg width="640" height="131" viewBox="0 0 640 131" fill="none" xmlns="http://www.w3.org/2000/svg">
<path d="M72.1686 23.1041C74.2166 23.1041 76.4566 23.5841 78.8886 24.5441C81.1286 25.4401 82.2486 27.1361 82.2486 29.6321V95.7761C82.2486 98.8481 80.3606 100.384 76.5846 100.384C72.8086 100.384 70.9206 98.8481 70.9206 95.7761V46.4321L68.1366 46.1441L64.2966 58.6241L52.7766 97.0241C52.0726 99.2641 50.3446 100.352 47.5926 100.288C46.3766 100.224 45.3206 99.9041 44.4246 99.3281C43.5286 98.7521 42.9206 97.9201 42.6006 96.8321L35.6886 74.4641C34.2806 70.0481 32.8726 65.5681 31.4646 61.0241C30.0566 56.4161 28.5206 51.3281 26.8566 45.7601L24.0726 46.1441V95.7761C24.0726 98.8481 22.1846 100.384 18.4086 100.384C14.6326 100.384 12.7446 98.8481 12.7446 95.7761V29.6321C12.7446 27.2001 13.8646 25.5041 16.1046 24.5441C18.4726 23.5841 20.7446 23.1361 22.9206 23.2001C23.8806 23.2001 24.8726 23.3281 25.8966 23.5841C26.9206 23.8401 27.8806 24.2241 28.7766 24.7361C29.6726 25.1841 30.4726 25.7921 31.1766 26.5601C31.8806 27.2641 32.4246 28.0961 32.8086 29.0561L47.8806 80.4161C48.9686 76.6401 50.1206 72.5441 51.3366 68.1281C52.5526 63.7121 53.8006 59.2321 55.0806 54.6881C56.3606 50.1441 57.6086 45.6641 58.8246 41.2481C60.1046 36.7681 61.2886 32.6081 62.3766 28.7681C62.7606 27.8721 63.3046 27.0721 64.0086 26.3681C64.7126 25.6641 65.5126 25.0881 66.4086 24.6401C67.3046 24.1281 68.2326 23.7441 69.1926 23.4881C70.2166 23.2321 71.2086 23.1041 72.1686 23.1041ZM147.565 84.4481C147.565 89.6321 145.837 93.5041 142.381 96.0641C140.717 97.2801 138.989 98.2401 137.197 98.9441C135.469 99.5841 133.773 99.9041 132.109 99.9041H111.181C109.517 99.9041 107.789 99.5841 105.997 98.9441C104.269 98.2401 102.573 97.2801 100.909 96.0641C99.2446 94.7841 97.9646 93.2161 97.0686 91.3601C96.1726 89.4401 95.7246 87.1361 95.7246 84.4481V27.7121C95.7246 24.6401 97.6126 23.1041 101.389 23.1041C105.229 23.1041 107.149 24.6401 107.149 27.7121V83.6801C107.149 85.3441 107.629 86.8481 108.589 88.1921C109.549 89.5361 111.213 90.2081 113.581 90.2081H129.709C132.077 90.2081 133.741 89.5361 134.701 88.1921C135.661 86.8481 136.141 85.3441 136.141 83.6801V27.7121C136.141 24.6401 138.029 23.1041 141.805 23.1041C145.645 23.1041 147.565 24.6401 147.565 27.7121V84.4481ZM198.673 55.9361C200.337 55.9361 202.065 56.2881 203.857 56.9921C205.649 57.6961 207.377 58.6241 209.041 59.7761H208.945C210.609 60.9281 211.889 62.4961 212.785 64.4801C213.681 66.4641 214.129 68.7361 214.129 71.2961V84.4481C214.129 89.6321 212.401 93.5041 208.945 96.0641C207.281 97.2801 205.553 98.2401 203.761 98.9441C202.033 99.5841 200.337 99.9041 198.673 99.9041H177.745C176.081 99.9041 174.353 99.5841 172.561 98.9441C170.833 98.2401 169.137 97.2801 167.473 96.0641C164.017 93.5041 162.289 89.6321 162.289 84.4481V78.1121C162.289 75.1041 164.177 73.6001 167.953 73.6001C171.793 73.6001 173.713 75.1041 173.713 78.1121V83.6801C173.713 85.3441 174.193 86.8481 175.153 88.1921C176.113 89.5361 177.777 90.2081 180.145 90.2081H196.273C198.641 90.2081 200.305 89.5361 201.265 88.1921C202.225 86.8481 202.705 85.3441 202.705 83.6801V72.0641C202.705 70.4641 202.225 68.9921 201.265 67.6481C200.305 66.2401 198.641 65.5361 196.273 65.5361H177.745C174.417 65.5361 170.993 64.3201 167.473 61.8881C164.017 59.2001 162.289 55.3281 162.289 50.2721V38.8481C162.289 36.2881 162.737 34.0481 163.633 32.1281C164.529 30.1441 165.809 28.5441 167.473 27.3281H167.377C169.041 26.2401 170.769 25.3441 172.561 24.6401C174.353 23.9361 176.081 23.5841 177.745 23.5841H198.673C200.337 23.5841 202.065 23.9361 203.857 24.6401C205.649 25.3441 207.377 26.2401 209.041 27.3281H208.945C210.609 28.5441 211.889 30.1441 212.785 32.1281C213.681 34.0481 214.129 36.2881 214.129 38.8481V44.5121C214.129 47.5201 212.209 49.0241 208.369 49.0241C204.593 49.0241 202.705 47.5201 202.705 44.5121V39.7121C202.705 38.1121 202.225 36.6401 201.265 35.2961C200.305 33.9521 198.641 33.2801 196.273 33.2801H180.145C177.777 33.2801 176.113 33.9521 175.153 35.2961C174.193 36.6401 173.713 38.1121 173.713 39.7121V49.5041C173.713 51.1681 174.193 52.6721 175.153 54.0161C176.113 55.2961 177.777 55.9361 180.145 55.9361H198.673ZM241.035 95.7761C241.035 98.8481 239.115 100.384 235.275 100.384C231.499 100.384 229.611 98.8481 229.611 95.7761V27.7121C229.611 24.6401 231.499 23.1041 235.275 23.1041C239.115 23.1041 241.035 24.6401 241.035 27.7121V95.7761ZM308.158 84.4481C308.158 89.6321 306.43 93.5041 302.974 96.0641C301.31 97.2801 299.582 98.2401 297.79 98.9441C296.062 99.5841 294.366 99.9041 292.702 99.9041H271.774C270.11 99.9041 268.382 99.5841 266.59 98.9441C264.862 98.2401 263.166 97.2801 261.502 96.0641C259.838 94.7841 258.558 93.2161 257.662 91.3601C256.766 89.4401 256.318 87.1361 256.318 84.4481V38.8481C256.318 36.2881 256.766 34.0481 257.662 32.1281C258.558 30.1441 259.838 28.5441 261.502 27.3281H261.406C263.07 26.2401 264.798 25.3441 266.59 24.6401C268.382 23.9361 270.11 23.5841 271.774 23.5841H292.702C294.366 23.5841 296.094 23.9361 297.886 24.6401C299.678 25.3441 301.406 26.2401 303.07 27.3281H302.974C304.638 28.5441 305.918 30.1441 306.814 32.1281C307.71 34.0481 308.158 36.2881 308.158 38.8481V45.4721C308.158 48.5441 306.238 50.0801 302.398 50.0801C298.622 50.0801 296.734 48.5441 296.734 45.4721V39.7121C296.734 38.1121 296.254 36.6401 295.294 35.2961C294.334 33.9521 292.67 33.2801 290.302 33.2801H274.174C271.806 33.2801 270.142 33.9521 269.182 35.2961C268.222 36.6401 267.742 38.1121 267.742 39.7121V83.6801C267.742 85.3441 268.222 86.8481 269.182 88.1921C270.142 89.5361 271.806 90.2081 274.174 90.2081H290.302C292.67 90.2081 294.334 89.5361 295.294 88.1921C296.254 86.8481 296.734 85.3441 296.734 83.6801V78.1121C296.734 75.1041 298.622 73.6001 302.398 73.6001C306.238 73.6001 308.158 75.1041 308.158 78.1121V84.4481Z" fill="#E93B69"/>
<path d="M392.169 23.1041C394.217 23.1041 396.457 23.5841 398.889 24.5441C401.129 25.4401 402.249 27.1361 402.249 29.6321V95.7761C402.249 98.8481 400.361 100.384 396.585 100.384C392.809 100.384 390.921 98.8481 390.921 95.7761V46.4321L388.137 46.1441L384.297 58.6241L372.777 97.0241C372.073 99.2641 370.345 100.352 367.593 100.288C366.377 100.224 365.321 99.9041 364.425 99.3281C363.529 98.7521 362.921 97.9201 362.601 96.8321L355.689 74.4641C354.281 70.0481 352.873 65.5681 351.465 61.0241C350.057 56.4161 348.521 51.3281 346.857 45.7601L344.073 46.1441V95.7761C344.073 98.8481 342.185 100.384 338.409 100.384C334.633 100.384 332.745 98.8481 332.745 95.7761V29.6321C332.745 27.2001 333.865 25.5041 336.105 24.5441C338.473 23.5841 340.745 23.1361 342.921 23.2001C343.881 23.2001 344.873 23.3281 345.897 23.5841C346.921 23.8401 347.881 24.2241 348.777 24.7361C349.673 25.1841 350.473 25.7921 351.177 26.5601C351.881 27.2641 352.425 28.0961 352.809 29.0561L367.881 80.4161C368.969 76.6401 370.121 72.5441 371.337 68.1281C372.553 63.7121 373.801 59.2321 375.081 54.6881C376.361 50.1441 377.609 45.6641 378.825 41.2481C380.105 36.7681 381.289 32.6081 382.377 28.7681C382.761 27.8721 383.305 27.0721 384.009 26.3681C384.713 25.6641 385.513 25.0881 386.409 24.6401C387.305 24.1281 388.233 23.7441 389.193 23.4881C390.217 23.2321 391.209 23.1041 392.169 23.1041ZM467.565 84.4481C467.565 89.6321 465.837 93.5041 462.381 96.0641C460.717 97.2801 458.989 98.2401 457.197 98.9441C455.469 99.5841 453.773 99.9041 452.109 99.9041H431.181C429.517 99.9041 427.789 99.5841 425.997 98.9441C424.269 98.2401 422.573 97.2801 420.909 96.0641C419.245 94.7841 417.965 93.2161 417.069 91.3601C416.173 89.4401 415.725 87.1361 415.725 84.4481V27.7121C415.725 24.6401 417.613 23.1041 421.389 23.1041C425.229 23.1041 427.149 24.6401 427.149 27.7121V83.6801C427.149 85.3441 427.629 86.8481 428.589 88.1921C429.549 89.5361 431.213 90.2081 433.581 90.2081H449.709C452.077 90.2081 453.741 89.5361 454.701 88.1921C455.661 86.8481 456.141 85.3441 456.141 83.6801V27.7121C456.141 24.6401 458.029 23.1041 461.805 23.1041C465.645 23.1041 467.565 24.6401 467.565 27.7121V84.4481ZM518.673 55.9361C520.337 55.9361 522.065 56.2881 523.857 56.9921C525.649 57.6961 527.377 58.6241 529.041 59.7761H528.945C530.609 60.9281 531.889 62.4961 532.785 64.4801C533.681 66.4641 534.129 68.7361 534.129 71.2961V84.4481C534.129 89.6321 532.401 93.5041 528.945 96.0641C527.281 97.2801 525.553 98.2401 523.761 98.9441C522.033 99.5841 520.337 99.9041 518.673 99.9041H497.745C496.081 99.9041 494.353 99.5841 492.561 98.9441C490.833 98.2401 489.137 97.2801 487.473 96.0641C484.017 93.5041 482.289 89.6321 482.289 84.4481V78.1121C482.289 75.1041 484.177 73.6001 487.953 73.6001C491.793 73.6001 493.713 75.1041 493.713 78.1121V83.6801C493.713 85.3441 494.193 86.8481 495.153 88.1921C496.113 89.5361 497.777 90.2081 500.145 90.2081H516.273C518.641 90.2081 520.305 89.5361 521.265 88.1921C522.225 86.8481 522.705 85.3441 522.705 83.6801V72.0641C522.705 70.4641 522.225 68.9921 521.265 67.6481C520.305 66.2401 518.641 65.5361 516.273 65.5361H497.745C494.417 65.5361 490.993 64.3201 487.473 61.8881C484.017 59.2001 482.289 55.3281 482.289 50.2721V38.8481C482.289 36.2881 482.737 34.0481 483.633 32.1281C484.529 30.1441 485.809 28.5441 487.473 27.3281H487.377C489.041 26.2401 490.769 25.3441 492.561 24.6401C494.353 23.9361 496.081 23.5841 497.745 23.5841H518.673C520.337 23.5841 522.065 23.9361 523.857 24.6401C525.649 25.3441 527.377 26.2401 529.041 27.3281H528.945C530.609 28.5441 531.889 30.1441 532.785 32.1281C533.681 34.0481 534.129 36.2881 534.129 38.8481V44.5121C534.129 47.5201 532.209 49.0241 528.369 49.0241C524.593 49.0241 522.705 47.5201 522.705 44.5121V39.7121C522.705 38.1121 522.225 36.6401 521.265 35.2961C520.305 33.9521 518.641 33.2801 516.273 33.2801H500.145C497.777 33.2801 496.113 33.9521 495.153 35.2961C494.193 36.6401 493.713 38.1121 493.713 39.7121V49.5041C493.713 51.1681 494.193 52.6721 495.153 54.0161C496.113 55.2961 497.777 55.9361 500.145 55.9361H518.673ZM561.035 95.7761C561.035 98.8481 559.115 100.384 555.275 100.384C551.499 100.384 549.611 98.8481 549.611 95.7761V27.7121C549.611 24.6401 551.499 23.1041 555.275 23.1041C559.115 23.1041 561.035 24.6401 561.035 27.7121V95.7761ZM628.158 84.4481C628.158 89.6321 626.43 93.5041 622.974 96.0641C621.31 97.2801 619.582 98.2401 617.79 98.9441C616.062 99.5841 614.366 99.9041 612.702 99.9041H591.774C590.11 99.9041 588.382 99.5841 586.59 98.9441C584.862 98.2401 583.166 97.2801 581.502 96.0641C579.838 94.7841 578.558 93.2161 577.662 91.3601C576.766 89.4401 576.318 87.1361 576.318 84.4481V38.8481C576.318 36.2881 576.766 34.0481 577.662 32.1281C578.558 30.1441 579.838 28.5441 581.502 27.3281H581.406C583.07 26.2401 584.798 25.3441 586.59 24.6401C588.382 23.9361 590.11 23.5841 591.774 23.5841H612.702C614.366 23.5841 616.094 23.9361 617.886 24.6401C619.678 25.3441 621.406 26.2401 623.07 27.3281H622.974C624.638 28.5441 625.918 30.1441 626.814 32.1281C627.71 34.0481 628.158 36.2881 628.158 38.8481V45.4721C628.158 48.5441 626.238 50.0801 622.398 50.0801C618.622 50.0801 616.734 48.5441 616.734 45.4721V39.7121C616.734 38.1121 616.254 36.6401 615.294 35.2961C614.334 33.9521 612.67 33.2801 610.302 33.2801H594.174C591.806 33.2801 590.142 33.9521 589.182 35.2961C588.222 36.6401 587.742 38.1121 587.742 39.7121V83.6801C587.742 85.3441 588.222 86.8481 589.182 88.1921C590.142 89.5361 591.806 90.2081 594.174 90.2081H610.302C612.67 90.2081 614.334 89.5361 615.294 88.1921C616.254 86.8481 616.734 85.3441 616.734 83.6801V78.1121C616.734 75.1041 618.622 73.6001 622.398 73.6001C626.238 73.6001 628.158 75.1041 628.158 78.1121V84.4481Z" fill="#621529"/>
</svg>
