<svg width="840" height="131" viewBox="0 0 840 131" fill="none" xmlns="http://www.w3.org/2000/svg">
<path d="M467.296 23.5841C468.96 23.5841 470.688 23.9361 472.48 24.6401C474.272 25.3441 476 26.2401 477.664 27.3281H477.568C479.232 28.5441 480.512 30.1441 481.408 32.1281C482.304 34.0481 482.752 36.2881 482.752 38.8481V84.4481C482.752 89.6321 481.024 93.5041 477.568 96.0641C475.904 97.2801 474.176 98.2401 472.384 98.9441C470.656 99.5841 468.96 99.9041 467.296 99.9041H446.368C444.704 99.9041 442.976 99.5841 441.184 98.9441C439.456 98.2401 437.76 97.2801 436.096 96.0641C434.432 94.7841 433.152 93.2161 432.256 91.3601C431.36 89.4401 430.912 87.1361 430.912 84.4481V38.8481C430.912 36.2881 431.36 34.0481 432.256 32.1281C433.152 30.1441 434.432 28.5441 436.096 27.3281H436C437.664 26.2401 439.392 25.3441 441.184 24.6401C442.976 23.9361 444.704 23.5841 446.368 23.5841H467.296ZM464.896 90.2081C467.264 90.2081 468.928 89.5361 469.888 88.1921C470.848 86.8481 471.328 85.3441 471.328 83.6801V39.7121C471.328 38.1121 470.848 36.6401 469.888 35.2961C468.928 33.9521 467.264 33.2801 464.896 33.2801H448.768C446.4 33.2801 444.736 33.9521 443.776 35.2961C442.816 36.6401 442.336 38.1121 442.336 39.7121V83.6801C442.336 85.3441 442.816 86.8481 443.776 88.1921C444.736 89.5361 446.4 90.2081 448.768 90.2081H464.896ZM518.121 71.5841C517.033 71.5841 516.169 71.1681 515.529 70.3361C514.953 69.4401 514.665 68.2561 514.665 66.7841C514.665 63.5201 516.009 61.8881 518.697 61.8881H528.873C531.241 61.8881 532.905 61.2161 533.865 59.8721C534.889 58.5281 535.401 57.0561 535.401 55.4561V39.7121C535.401 38.1121 534.889 36.6401 533.865 35.2961C532.905 33.9521 531.241 33.2801 528.873 33.2801H508.713V95.9681C508.713 99.0401 506.793 100.576 502.953 100.576C499.241 100.576 497.385 99.0401 497.385 95.9681V29.3441C497.385 27.0401 497.961 25.5041 499.113 24.7361C500.265 23.9681 501.673 23.5841 503.337 23.5841H531.369C532.969 23.5841 534.665 23.9361 536.457 24.6401C538.249 25.3441 539.977 26.2401 541.641 27.3281H541.545C543.209 28.5441 544.489 30.1441 545.385 32.1281C546.281 34.0481 546.729 36.2881 546.729 38.8481V56.2241C546.729 61.4081 545.001 65.2801 541.545 67.8401C539.881 69.0561 538.185 69.9841 536.457 70.6241C534.729 71.2641 533.033 71.5841 531.369 71.5841H518.121ZM586.953 95.9681C586.953 99.0401 585.033 100.576 581.193 100.576C577.417 100.576 575.529 99.0401 575.529 95.9681V33.2801H558.729C556.425 33.2801 555.209 31.6481 555.081 28.3841C555.081 25.1841 556.297 23.5841 558.729 23.5841H603.753C606.185 23.5841 607.337 25.1841 607.209 28.3841C607.209 31.6481 606.057 33.2801 603.753 33.2801H586.953V95.9681ZM627.597 95.7761C627.597 98.8481 625.677 100.384 621.837 100.384C618.061 100.384 616.173 98.8481 616.173 95.7761V27.7121C616.173 24.6401 618.061 23.1041 621.837 23.1041C625.677 23.1041 627.597 24.6401 627.597 27.7121V95.7761ZM679.265 23.5841C680.929 23.5841 682.657 23.9361 684.449 24.6401C686.241 25.3441 687.969 26.2401 689.633 27.3281H689.537C691.201 28.5441 692.481 30.1441 693.377 32.1281C694.273 34.0481 694.721 36.2881 694.721 38.8481V84.4481C694.721 89.6321 692.993 93.5041 689.537 96.0641C687.873 97.2801 686.145 98.2401 684.353 98.9441C682.625 99.5841 680.929 99.9041 679.265 99.9041H658.337C656.673 99.9041 654.945 99.5841 653.153 98.9441C651.425 98.2401 649.729 97.2801 648.065 96.0641C646.401 94.7841 645.121 93.2161 644.225 91.3601C643.329 89.4401 642.881 87.1361 642.881 84.4481V38.8481C642.881 36.2881 643.329 34.0481 644.225 32.1281C645.121 30.1441 646.401 28.5441 648.065 27.3281H647.969C649.633 26.2401 651.361 25.3441 653.153 24.6401C654.945 23.9361 656.673 23.5841 658.337 23.5841H679.265ZM676.865 90.2081C679.233 90.2081 680.897 89.5361 681.857 88.1921C682.817 86.8481 683.297 85.3441 683.297 83.6801V39.7121C683.297 38.1121 682.817 36.6401 681.857 35.2961C680.897 33.9521 679.233 33.2801 676.865 33.2801H660.737C658.369 33.2801 656.705 33.9521 655.745 35.2961C654.785 36.6401 654.305 38.1121 654.305 39.7121V83.6801C654.305 85.3441 654.785 86.8481 655.745 88.1921C656.705 89.5361 658.369 90.2081 660.737 90.2081H676.865ZM751.786 27.7121C751.786 24.6401 753.674 23.1041 757.45 23.1041C761.226 23.1041 763.114 24.6401 763.114 27.7121V93.9521C763.114 96.1921 761.93 97.8241 759.562 98.8481H759.658C758.634 99.2961 757.546 99.6481 756.394 99.9041C755.242 100.16 754.122 100.288 753.034 100.288C752.202 100.288 751.338 100.192 750.442 100C749.546 99.8721 748.682 99.6481 747.85 99.3281C747.082 98.9441 746.346 98.4641 745.642 97.8881C745.002 97.2481 744.49 96.4801 744.106 95.5841L723.274 43.6481L720.682 43.9361V95.7761C720.682 98.8481 718.762 100.384 714.922 100.384C711.146 100.384 709.258 98.8481 709.258 95.7761V29.6321C709.258 27.0081 710.41 25.2481 712.714 24.3521C714.826 23.5201 717.066 23.1041 719.434 23.1041C721.098 23.1041 722.762 23.4561 724.426 24.1601C726.154 24.8001 727.466 26.0481 728.362 27.9041L749.098 79.9361L751.786 79.6481V27.7121ZM813.798 55.9361C815.462 55.9361 817.19 56.2881 818.982 56.9921C820.774 57.6961 822.502 58.6241 824.166 59.7761H824.07C825.734 60.9281 827.014 62.4961 827.91 64.4801C828.806 66.4641 829.254 68.7361 829.254 71.2961V84.4481C829.254 89.6321 827.526 93.5041 824.07 96.0641C822.406 97.2801 820.678 98.2401 818.886 98.9441C817.158 99.5841 815.462 99.9041 813.798 99.9041H792.87C791.206 99.9041 789.478 99.5841 787.686 98.9441C785.958 98.2401 784.262 97.2801 782.598 96.0641C779.142 93.5041 777.414 89.6321 777.414 84.4481V78.1121C777.414 75.1041 779.302 73.6001 783.078 73.6001C786.918 73.6001 788.838 75.1041 788.838 78.1121V83.6801C788.838 85.3441 789.318 86.8481 790.278 88.1921C791.238 89.5361 792.902 90.2081 795.27 90.2081H811.398C813.766 90.2081 815.43 89.5361 816.39 88.1921C817.35 86.8481 817.83 85.3441 817.83 83.6801V72.0641C817.83 70.4641 817.35 68.9921 816.39 67.6481C815.43 66.2401 813.766 65.5361 811.398 65.5361H792.87C789.542 65.5361 786.118 64.3201 782.598 61.8881C779.142 59.2001 777.414 55.3281 777.414 50.2721V38.8481C777.414 36.2881 777.862 34.0481 778.758 32.1281C779.654 30.1441 780.934 28.5441 782.598 27.3281H782.502C784.166 26.2401 785.894 25.3441 787.686 24.6401C789.478 23.9361 791.206 23.5841 792.87 23.5841H813.798C815.462 23.5841 817.19 23.9361 818.982 24.6401C820.774 25.3441 822.502 26.2401 824.166 27.3281H824.07C825.734 28.5441 827.014 30.1441 827.91 32.1281C828.806 34.0481 829.254 36.2881 829.254 38.8481V44.5121C829.254 47.5201 827.334 49.0241 823.494 49.0241C819.718 49.0241 817.83 47.5201 817.83 44.5121V39.7121C817.83 38.1121 817.35 36.6401 816.39 35.2961C815.43 33.9521 813.766 33.2801 811.398 33.2801H795.27C792.902 33.2801 791.238 33.9521 790.278 35.2961C789.318 36.6401 788.838 38.1121 788.838 39.7121V49.5041C788.838 51.1681 789.318 52.6721 790.278 54.0161C791.238 55.2961 792.902 55.9361 795.27 55.9361H813.798Z" fill="#621529"/>
<path d="M47.2961 23.5841C48.9601 23.5841 50.6881 23.9361 52.4801 24.6401C54.2721 25.3441 56.0001 26.2401 57.6641 27.3281H57.5681C59.2321 28.5441 60.5121 30.1441 61.4081 32.1281C62.3041 34.0481 62.7521 36.2881 62.7521 38.8481V84.4481C62.7521 89.6321 61.0241 93.5041 57.5681 96.0641C55.9041 97.2801 54.1761 98.2401 52.3841 98.9441C50.6561 99.5841 48.9601 99.9041 47.2961 99.9041H26.3681C24.7041 99.9041 22.9761 99.5841 21.1841 98.9441C19.4561 98.2401 17.7601 97.2801 16.0961 96.0641C14.4321 94.7841 13.1521 93.2161 12.2561 91.3601C11.3601 89.4401 10.9121 87.1361 10.9121 84.4481V38.8481C10.9121 36.2881 11.3601 34.0481 12.2561 32.1281C13.1521 30.1441 14.4321 28.5441 16.0961 27.3281H16.0001C17.6641 26.2401 19.3921 25.3441 21.1841 24.6401C22.9761 23.9361 24.7041 23.5841 26.3681 23.5841H47.2961ZM44.8961 90.2081C47.2641 90.2081 48.9281 89.5361 49.8881 88.1921C50.8481 86.8481 51.3281 85.3441 51.3281 83.6801V39.7121C51.3281 38.1121 50.8481 36.6401 49.8881 35.2961C48.9281 33.9521 47.2641 33.2801 44.8961 33.2801H28.7681C26.4001 33.2801 24.7361 33.9521 23.7761 35.2961C22.8161 36.6401 22.3361 38.1121 22.3361 39.7121V83.6801C22.3361 85.3441 22.8161 86.8481 23.7761 88.1921C24.7361 89.5361 26.4001 90.2081 28.7681 90.2081H44.8961ZM98.1214 71.5841C97.0334 71.5841 96.1694 71.1681 95.5294 70.3361C94.9534 69.4401 94.6654 68.2561 94.6654 66.7841C94.6654 63.5201 96.0094 61.8881 98.6974 61.8881H108.873C111.241 61.8881 112.905 61.2161 113.865 59.8721C114.889 58.5281 115.401 57.0561 115.401 55.4561V39.7121C115.401 38.1121 114.889 36.6401 113.865 35.2961C112.905 33.9521 111.241 33.2801 108.873 33.2801H88.7134V95.9681C88.7134 99.0401 86.7934 100.576 82.9534 100.576C79.2414 100.576 77.3854 99.0401 77.3854 95.9681V29.3441C77.3854 27.0401 77.9614 25.5041 79.1134 24.7361C80.2654 23.9681 81.6734 23.5841 83.3374 23.5841H111.369C112.969 23.5841 114.665 23.9361 116.457 24.6401C118.249 25.3441 119.977 26.2401 121.641 27.3281H121.545C123.209 28.5441 124.489 30.1441 125.385 32.1281C126.281 34.0481 126.729 36.2881 126.729 38.8481V56.2241C126.729 61.4081 125.001 65.2801 121.545 67.8401C119.881 69.0561 118.185 69.9841 116.457 70.6241C114.729 71.2641 113.033 71.5841 111.369 71.5841H98.1214ZM166.953 95.9681C166.953 99.0401 165.033 100.576 161.193 100.576C157.417 100.576 155.529 99.0401 155.529 95.9681V33.2801H138.729C136.425 33.2801 135.209 31.6481 135.081 28.3841C135.081 25.1841 136.297 23.5841 138.729 23.5841H183.753C186.185 23.5841 187.337 25.1841 187.209 28.3841C187.209 31.6481 186.057 33.2801 183.753 33.2801H166.953V95.9681ZM207.597 95.7761C207.597 98.8481 205.677 100.384 201.837 100.384C198.061 100.384 196.173 98.8481 196.173 95.7761V27.7121C196.173 24.6401 198.061 23.1041 201.837 23.1041C205.677 23.1041 207.597 24.6401 207.597 27.7121V95.7761ZM259.265 23.5841C260.929 23.5841 262.657 23.9361 264.449 24.6401C266.241 25.3441 267.969 26.2401 269.633 27.3281H269.537C271.201 28.5441 272.481 30.1441 273.377 32.1281C274.273 34.0481 274.721 36.2881 274.721 38.8481V84.4481C274.721 89.6321 272.993 93.5041 269.537 96.0641C267.873 97.2801 266.145 98.2401 264.353 98.9441C262.625 99.5841 260.929 99.9041 259.265 99.9041H238.337C236.673 99.9041 234.945 99.5841 233.153 98.9441C231.425 98.2401 229.729 97.2801 228.065 96.0641C226.401 94.7841 225.121 93.2161 224.225 91.3601C223.329 89.4401 222.881 87.1361 222.881 84.4481V38.8481C222.881 36.2881 223.329 34.0481 224.225 32.1281C225.121 30.1441 226.401 28.5441 228.065 27.3281H227.969C229.633 26.2401 231.361 25.3441 233.153 24.6401C234.945 23.9361 236.673 23.5841 238.337 23.5841H259.265ZM256.865 90.2081C259.233 90.2081 260.897 89.5361 261.857 88.1921C262.817 86.8481 263.297 85.3441 263.297 83.6801V39.7121C263.297 38.1121 262.817 36.6401 261.857 35.2961C260.897 33.9521 259.233 33.2801 256.865 33.2801H240.737C238.369 33.2801 236.705 33.9521 235.745 35.2961C234.785 36.6401 234.305 38.1121 234.305 39.7121V83.6801C234.305 85.3441 234.785 86.8481 235.745 88.1921C236.705 89.5361 238.369 90.2081 240.737 90.2081H256.865ZM331.786 27.7121C331.786 24.6401 333.674 23.1041 337.45 23.1041C341.226 23.1041 343.114 24.6401 343.114 27.7121V93.9521C343.114 96.1921 341.93 97.8241 339.562 98.8481H339.658C338.634 99.2961 337.546 99.6481 336.394 99.9041C335.242 100.16 334.122 100.288 333.034 100.288C332.202 100.288 331.338 100.192 330.442 100C329.546 99.8721 328.682 99.6481 327.85 99.3281C327.082 98.9441 326.346 98.4641 325.642 97.8881C325.002 97.2481 324.49 96.4801 324.106 95.5841L303.274 43.6481L300.682 43.9361V95.7761C300.682 98.8481 298.762 100.384 294.922 100.384C291.146 100.384 289.258 98.8481 289.258 95.7761V29.6321C289.258 27.0081 290.41 25.2481 292.714 24.3521C294.826 23.5201 297.066 23.1041 299.434 23.1041C301.098 23.1041 302.762 23.4561 304.426 24.1601C306.154 24.8001 307.466 26.0481 308.362 27.9041L329.098 79.9361L331.786 79.6481V27.7121ZM393.798 55.9361C395.462 55.9361 397.19 56.2881 398.982 56.9921C400.774 57.6961 402.502 58.6241 404.166 59.7761H404.07C405.734 60.9281 407.014 62.4961 407.91 64.4801C408.806 66.4641 409.254 68.7361 409.254 71.2961V84.4481C409.254 89.6321 407.526 93.5041 404.07 96.0641C402.406 97.2801 400.678 98.2401 398.886 98.9441C397.158 99.5841 395.462 99.9041 393.798 99.9041H372.87C371.206 99.9041 369.478 99.5841 367.686 98.9441C365.958 98.2401 364.262 97.2801 362.598 96.0641C359.142 93.5041 357.414 89.6321 357.414 84.4481V78.1121C357.414 75.1041 359.302 73.6001 363.078 73.6001C366.918 73.6001 368.838 75.1041 368.838 78.1121V83.6801C368.838 85.3441 369.318 86.8481 370.278 88.1921C371.238 89.5361 372.902 90.2081 375.27 90.2081H391.398C393.766 90.2081 395.43 89.5361 396.39 88.1921C397.35 86.8481 397.83 85.3441 397.83 83.6801V72.0641C397.83 70.4641 397.35 68.9921 396.39 67.6481C395.43 66.2401 393.766 65.5361 391.398 65.5361H372.87C369.542 65.5361 366.118 64.3201 362.598 61.8881C359.142 59.2001 357.414 55.3281 357.414 50.2721V38.8481C357.414 36.2881 357.862 34.0481 358.758 32.1281C359.654 30.1441 360.934 28.5441 362.598 27.3281H362.502C364.166 26.2401 365.894 25.3441 367.686 24.6401C369.478 23.9361 371.206 23.5841 372.87 23.5841H393.798C395.462 23.5841 397.19 23.9361 398.982 24.6401C400.774 25.3441 402.502 26.2401 404.166 27.3281H404.07C405.734 28.5441 407.014 30.1441 407.91 32.1281C408.806 34.0481 409.254 36.2881 409.254 38.8481V44.5121C409.254 47.5201 407.334 49.0241 403.494 49.0241C399.718 49.0241 397.83 47.5201 397.83 44.5121V39.7121C397.83 38.1121 397.35 36.6401 396.39 35.2961C395.43 33.9521 393.766 33.2801 391.398 33.2801H375.27C372.902 33.2801 371.238 33.9521 370.278 35.2961C369.318 36.6401 368.838 38.1121 368.838 39.7121V49.5041C368.838 51.1681 369.318 52.6721 370.278 54.0161C371.238 55.2961 372.902 55.9361 375.27 55.9361H393.798Z" fill="#E93B69"/>
</svg>
