<svg width="540" height="131" viewBox="0 0 540 131" fill="none" xmlns="http://www.w3.org/2000/svg">
<path d="M40.887 71.5841C39.799 71.5841 38.935 71.1681 38.295 70.3361C37.719 69.4401 37.431 68.2561 37.431 66.7841C37.431 63.5201 38.775 61.8881 41.463 61.8881H51.639C54.007 61.8881 55.671 61.2161 56.631 59.8721C57.655 58.5281 58.167 57.0561 58.167 55.4561V39.7121C58.167 38.1121 57.655 36.6401 56.631 35.2961C55.671 33.9521 54.007 33.2801 51.639 33.2801H31.479V95.9681C31.479 99.0401 29.559 100.576 25.719 100.576C22.007 100.576 20.151 99.0401 20.151 95.9681V29.3441C20.151 27.0401 20.727 25.5041 21.879 24.7361C23.031 23.9681 24.439 23.5841 26.103 23.5841H54.135C55.735 23.5841 57.431 23.9361 59.223 24.6401C61.015 25.3441 62.743 26.2401 64.407 27.3281H64.311C65.975 28.5441 67.255 30.1441 68.151 32.1281C69.047 34.0481 69.495 36.2881 69.495 38.8481V56.2241C69.495 61.4081 67.767 65.2801 64.311 67.8401C62.647 69.0561 60.951 69.9841 59.223 70.6241C57.495 71.2641 55.799 71.5841 54.135 71.5841H40.887ZM90.1343 99.9041C87.7663 99.9041 86.1663 99.2961 85.3343 98.0801C84.5023 96.8641 84.0863 95.5201 84.0863 94.0481V27.7121C84.0863 24.6401 85.9423 23.1041 89.6543 23.1041C93.4943 23.1041 95.4143 24.6401 95.4143 27.7121V90.2081H127.478C129.782 90.2081 130.934 91.7761 130.934 94.9121C131.062 98.2401 129.91 99.9041 127.478 99.9041H90.1343ZM165.022 32.9921L143.998 97.5041V97.4081C143.614 98.3681 143.07 99.1681 142.366 99.8081C141.726 100.384 140.926 100.672 139.966 100.672C139.454 100.672 138.942 100.608 138.43 100.48C137.982 100.416 137.502 100.32 136.99 100.192H137.086C133.438 99.0401 132.094 96.9921 133.054 94.0481L154.942 27.5201C155.262 26.4961 155.806 25.6321 156.574 24.9281C157.406 24.2241 158.366 23.8081 159.454 23.6801C160.542 23.4881 161.598 23.3601 162.622 23.2961C163.646 23.1681 164.446 23.1041 165.022 23.1041C165.598 23.1041 166.398 23.1681 167.422 23.2961C168.446 23.3601 169.502 23.4561 170.59 23.5841C171.486 23.7121 172.35 24.1921 173.182 25.0241C174.078 25.8561 174.75 26.6881 175.198 27.5201C178.782 38.5281 182.398 49.6321 186.046 60.8321C189.758 71.9681 193.406 83.0401 196.99 94.0481C197.886 96.9921 196.542 99.0401 192.958 100.192C192.446 100.32 191.966 100.416 191.518 100.48C191.134 100.608 190.686 100.672 190.174 100.672C189.278 100.672 188.446 100.384 187.678 99.8081C186.974 99.1681 186.462 98.3681 186.142 97.4081V97.5041L165.022 32.9921ZM172.222 76.7681C172.222 78.8161 171.486 80.5761 170.014 82.0481C168.606 83.4561 166.878 84.1601 164.83 84.1601C162.782 84.1601 161.054 83.4561 159.646 82.0481C158.238 80.5761 157.534 78.8161 157.534 76.7681C157.534 74.7201 158.238 72.9921 159.646 71.5841C161.054 70.1121 162.782 69.3761 164.83 69.3761C166.878 69.3761 168.606 70.1121 170.014 71.5841C171.486 72.9921 172.222 74.7201 172.222 76.7681ZM233.618 95.9681C233.618 99.0401 231.73 100.576 227.954 100.576C224.178 100.576 222.29 99.0401 222.29 95.9681V70.4321L200.786 29.5361C200.402 28.7041 200.21 27.8401 200.21 26.9441C200.21 25.0881 201.298 23.7121 203.474 22.8161H203.378C204.786 22.3041 205.906 22.0481 206.738 22.0481C208.402 22.0481 209.682 22.8801 210.578 24.5441L228.05 57.3761C229.33 54.9441 230.706 52.3521 232.178 49.6001C233.65 46.7841 235.122 43.9361 236.594 41.0561C238.13 38.1761 239.634 35.3281 241.106 32.5121C242.578 29.6961 243.986 27.0401 245.33 24.5441C245.842 23.7761 246.386 23.1681 246.962 22.7201C247.602 22.2721 248.37 22.0481 249.266 22.0481C250.162 22.0481 251.218 22.3041 252.434 22.8161H252.338C254.578 23.7761 255.698 25.1841 255.698 27.0401C255.698 27.4241 255.666 27.8401 255.602 28.2881C255.538 28.6721 255.378 29.0881 255.122 29.5361C254.546 30.6881 253.81 32.0961 252.914 33.7601C252.082 35.4241 250.866 37.7601 249.266 40.7681C247.73 43.7121 245.714 47.5841 243.218 52.3841C240.722 57.1201 237.522 63.2321 233.618 70.7201V95.9681Z" fill="#E93B69"/>
<path d="M310.887 71.5841C309.799 71.5841 308.935 71.1681 308.295 70.3361C307.719 69.4401 307.431 68.2561 307.431 66.7841C307.431 63.5201 308.775 61.8881 311.463 61.8881H321.639C324.007 61.8881 325.671 61.2161 326.631 59.8721C327.655 58.5281 328.167 57.0561 328.167 55.4561V39.7121C328.167 38.1121 327.655 36.6401 326.631 35.2961C325.671 33.9521 324.007 33.2801 321.639 33.2801H301.479V95.9681C301.479 99.0401 299.559 100.576 295.719 100.576C292.007 100.576 290.151 99.0401 290.151 95.9681V29.3441C290.151 27.0401 290.727 25.5041 291.879 24.7361C293.031 23.9681 294.439 23.5841 296.103 23.5841H324.135C325.735 23.5841 327.431 23.9361 329.223 24.6401C331.015 25.3441 332.743 26.2401 334.407 27.3281H334.311C335.975 28.5441 337.255 30.1441 338.151 32.1281C339.047 34.0481 339.495 36.2881 339.495 38.8481V56.2241C339.495 61.4081 337.767 65.2801 334.311 67.8401C332.647 69.0561 330.951 69.9841 329.223 70.6241C327.495 71.2641 325.799 71.5841 324.135 71.5841H310.887ZM360.134 99.9041C357.766 99.9041 356.166 99.2961 355.334 98.0801C354.502 96.8641 354.086 95.5201 354.086 94.0481V27.7121C354.086 24.6401 355.942 23.1041 359.654 23.1041C363.494 23.1041 365.414 24.6401 365.414 27.7121V90.2081H397.478C399.782 90.2081 400.934 91.7761 400.934 94.9121C401.062 98.2401 399.91 99.9041 397.478 99.9041H360.134ZM435.022 32.9921L413.998 97.5041V97.4081C413.614 98.3681 413.07 99.1681 412.366 99.8081C411.726 100.384 410.926 100.672 409.966 100.672C409.454 100.672 408.942 100.608 408.43 100.48C407.982 100.416 407.502 100.32 406.99 100.192H407.086C403.438 99.0401 402.094 96.9921 403.054 94.0481L424.942 27.5201C425.262 26.4961 425.806 25.6321 426.574 24.9281C427.406 24.2241 428.366 23.8081 429.454 23.6801C430.542 23.4881 431.598 23.3601 432.622 23.2961C433.646 23.1681 434.446 23.1041 435.022 23.1041C435.598 23.1041 436.398 23.1681 437.422 23.2961C438.446 23.3601 439.502 23.4561 440.59 23.5841C441.486 23.7121 442.35 24.1921 443.182 25.0241C444.078 25.8561 444.75 26.6881 445.198 27.5201C448.782 38.5281 452.398 49.6321 456.046 60.8321C459.758 71.9681 463.406 83.0401 466.99 94.0481C467.886 96.9921 466.542 99.0401 462.958 100.192C462.446 100.32 461.966 100.416 461.518 100.48C461.134 100.608 460.686 100.672 460.174 100.672C459.278 100.672 458.446 100.384 457.678 99.8081C456.974 99.1681 456.462 98.3681 456.142 97.4081V97.5041L435.022 32.9921ZM442.222 76.7681C442.222 78.8161 441.486 80.5761 440.014 82.0481C438.606 83.4561 436.878 84.1601 434.83 84.1601C432.782 84.1601 431.054 83.4561 429.646 82.0481C428.238 80.5761 427.534 78.8161 427.534 76.7681C427.534 74.7201 428.238 72.9921 429.646 71.5841C431.054 70.1121 432.782 69.3761 434.83 69.3761C436.878 69.3761 438.606 70.1121 440.014 71.5841C441.486 72.9921 442.222 74.7201 442.222 76.7681ZM503.618 95.9681C503.618 99.0401 501.73 100.576 497.954 100.576C494.178 100.576 492.29 99.0401 492.29 95.9681V70.4321L470.786 29.5361C470.402 28.7041 470.21 27.8401 470.21 26.9441C470.21 25.0881 471.298 23.7121 473.474 22.8161H473.378C474.786 22.3041 475.906 22.0481 476.738 22.0481C478.402 22.0481 479.682 22.8801 480.578 24.5441L498.05 57.3761C499.33 54.9441 500.706 52.3521 502.178 49.6001C503.65 46.7841 505.122 43.9361 506.594 41.0561C508.13 38.1761 509.634 35.3281 511.106 32.5121C512.578 29.6961 513.986 27.0401 515.33 24.5441C515.842 23.7761 516.386 23.1681 516.962 22.7201C517.602 22.2721 518.37 22.0481 519.266 22.0481C520.162 22.0481 521.218 22.3041 522.434 22.8161H522.338C524.578 23.7761 525.698 25.1841 525.698 27.0401C525.698 27.4241 525.666 27.8401 525.602 28.2881C525.538 28.6721 525.378 29.0881 525.122 29.5361C524.546 30.6881 523.81 32.0961 522.914 33.7601C522.082 35.4241 520.866 37.7601 519.266 40.7681C517.73 43.7121 515.714 47.5841 513.218 52.3841C510.722 57.1201 507.522 63.2321 503.618 70.7201V95.9681Z" fill="#621529"/>
</svg>
