<svg width="341" height="131" viewBox="0 0 341 131" fill="none" xmlns="http://www.w3.org/2000/svg">
<path d="M55.0796 55.9239C56.7436 55.9239 58.4716 56.2759 60.2636 56.9799C62.0556 57.6839 63.7836 58.6119 65.4476 59.7639H65.3516C67.0156 60.9159 68.2956 62.4839 69.1916 64.4679C70.0876 66.4519 70.5356 68.7239 70.5356 71.2839V84.4359C70.5356 89.6199 68.8076 93.4919 65.3516 96.0519C63.6876 97.2679 61.9596 98.2279 60.1676 98.9319C58.4396 99.5719 56.7436 99.8919 55.0796 99.8919H34.1516C32.4876 99.8919 30.7596 99.5719 28.9676 98.9319C27.2396 98.2279 25.5436 97.2679 23.8796 96.0519C20.4236 93.4919 18.6956 89.6199 18.6956 84.4359V78.0999C18.6956 75.0919 20.5836 73.5879 24.3596 73.5879C28.1996 73.5879 30.1196 75.0919 30.1196 78.0999V83.6679C30.1196 85.3319 30.5996 86.8359 31.5596 88.1799C32.5196 89.5239 34.1836 90.1959 36.5516 90.1959H52.6796C55.0476 90.1959 56.7116 89.5239 57.6716 88.1799C58.6316 86.8359 59.1116 85.3319 59.1116 83.6679V72.0519C59.1116 70.4519 58.6316 68.9799 57.6716 67.6359C56.7116 66.2279 55.0476 65.5239 52.6796 65.5239H34.1516C30.8236 65.5239 27.3996 64.3079 23.8796 61.8759C20.4236 59.1879 18.6956 55.3159 18.6956 50.2599V38.8359C18.6956 36.2759 19.1436 34.0359 20.0396 32.1159C20.9356 30.1319 22.2156 28.5319 23.8796 27.3159H23.7836C25.4476 26.2279 27.1756 25.3319 28.9676 24.6279C30.7596 23.9239 32.4876 23.5719 34.1516 23.5719H55.0796C56.7436 23.5719 58.4716 23.9239 60.2636 24.6279C62.0556 25.3319 63.7836 26.2279 65.4476 27.3159H65.3516C67.0156 28.5319 68.2956 30.1319 69.1916 32.1159C70.0876 34.0359 70.5356 36.2759 70.5356 38.8359V44.4999C70.5356 47.5079 68.6156 49.0119 64.7756 49.0119C60.9996 49.0119 59.1116 47.5079 59.1116 44.4999V39.6999C59.1116 38.0999 58.6316 36.6279 57.6716 35.2839C56.7116 33.9399 55.0476 33.2679 52.6796 33.2679H36.5516C34.1836 33.2679 32.5196 33.9399 31.5596 35.2839C30.5996 36.6279 30.1196 38.0999 30.1196 39.6999V49.4919C30.1196 51.1559 30.5996 52.6599 31.5596 54.0039C32.5196 55.2839 34.1836 55.9239 36.5516 55.9239H55.0796ZM137.377 84.4359C137.377 89.6199 135.649 93.4919 132.193 96.0519C130.529 97.2679 128.801 98.2279 127.009 98.9319C125.281 99.5719 123.585 99.8919 121.921 99.8919H100.993C99.3291 99.8919 97.6011 99.5719 95.8091 98.9319C94.0811 98.2279 92.3851 97.2679 90.7211 96.0519C89.0571 94.7719 87.7771 93.2039 86.8811 91.3479C85.9851 89.4279 85.5371 87.1239 85.5371 84.4359V38.8359C85.5371 36.2759 85.9851 34.0359 86.8811 32.1159C87.7771 30.1319 89.0571 28.5319 90.7211 27.3159H90.6251C92.2891 26.2279 94.0171 25.3319 95.8091 24.6279C97.6011 23.9239 99.3291 23.5719 100.993 23.5719H121.921C123.585 23.5719 125.313 23.9239 127.105 24.6279C128.897 25.3319 130.625 26.2279 132.289 27.3159H132.193C133.857 28.5319 135.137 30.1319 136.033 32.1159C136.929 34.0359 137.377 36.2759 137.377 38.8359V45.4599C137.377 48.5319 135.457 50.0679 131.617 50.0679C127.841 50.0679 125.953 48.5319 125.953 45.4599V39.6999C125.953 38.0999 125.473 36.6279 124.513 35.2839C123.553 33.9399 121.889 33.2679 119.521 33.2679H103.393C101.025 33.2679 99.3611 33.9399 98.4011 35.2839C97.4411 36.6279 96.9611 38.0999 96.9611 39.6999V83.6679C96.9611 85.3319 97.4411 86.8359 98.4011 88.1799C99.3611 89.5239 101.025 90.1959 103.393 90.1959H119.521C121.889 90.1959 123.553 89.5239 124.513 88.1799C125.473 86.8359 125.953 85.3319 125.953 83.6679V78.0999C125.953 75.0919 127.841 73.5879 131.617 73.5879C135.457 73.5879 137.377 75.0919 137.377 78.0999V84.4359ZM187.546 23.5719C189.21 23.5719 190.938 23.9239 192.73 24.6279C194.522 25.3319 196.25 26.2279 197.914 27.3159H197.818C199.482 28.5319 200.762 30.1319 201.658 32.1159C202.554 34.0359 203.002 36.2759 203.002 38.8359V84.4359C203.002 89.6199 201.274 93.4919 197.818 96.0519C196.154 97.2679 194.426 98.2279 192.634 98.9319C190.906 99.5719 189.21 99.8919 187.546 99.8919H166.618C164.954 99.8919 163.226 99.5719 161.434 98.9319C159.706 98.2279 158.01 97.2679 156.346 96.0519C154.682 94.7719 153.402 93.2039 152.506 91.3479C151.61 89.4279 151.162 87.1239 151.162 84.4359V38.8359C151.162 36.2759 151.61 34.0359 152.506 32.1159C153.402 30.1319 154.682 28.5319 156.346 27.3159H156.25C157.914 26.2279 159.642 25.3319 161.434 24.6279C163.226 23.9239 164.954 23.5719 166.618 23.5719H187.546ZM185.146 90.1959C187.514 90.1959 189.178 89.5239 190.138 88.1799C191.098 86.8359 191.578 85.3319 191.578 83.6679V39.6999C191.578 38.0999 191.098 36.6279 190.138 35.2839C189.178 33.9399 187.514 33.2679 185.146 33.2679H169.018C166.65 33.2679 164.986 33.9399 164.026 35.2839C163.066 36.6279 162.586 38.0999 162.586 39.6999V83.6679C162.586 85.3319 163.066 86.8359 164.026 88.1799C164.986 89.5239 166.65 90.1959 169.018 90.1959H185.146ZM244.707 68.2119H237.315C236.227 68.2119 235.363 67.7959 234.723 66.9639C234.147 66.0679 233.859 64.8839 233.859 63.4119C233.859 60.1479 235.203 58.5159 237.891 58.5159H249.123C251.491 58.5159 253.155 57.8439 254.115 56.4999C255.075 55.1559 255.555 53.6839 255.555 52.0839V39.6999C255.555 38.0999 255.075 36.6279 254.115 35.2839C253.155 33.9399 251.491 33.2679 249.123 33.2679H228.867V95.8599C228.867 98.9319 226.979 100.468 223.203 100.468C219.427 100.468 217.539 98.9319 217.539 95.8599V29.3319C217.539 27.0279 218.115 25.4919 219.267 24.7239C220.483 23.9559 221.923 23.5719 223.587 23.5719H251.523C253.187 23.5719 254.915 23.9239 256.707 24.6279C258.499 25.3319 260.227 26.2279 261.891 27.3159H261.795C263.459 28.5319 264.739 30.1319 265.635 32.1159C266.531 34.0359 266.979 36.2759 266.979 38.8359V52.8519C266.979 58.0359 265.251 61.9079 261.795 64.4679C261.091 64.9799 260.323 65.4599 259.491 65.9079C258.723 66.3559 257.923 66.8039 257.091 67.2519L272.451 92.5959C272.643 92.9159 272.835 93.3319 273.027 93.8439C273.219 94.3559 273.315 94.7719 273.315 95.0919C273.315 96.6279 272.227 98.0999 270.051 99.5079V99.4119C268.579 100.308 267.331 100.756 266.307 100.756C264.835 100.756 263.651 100.02 262.755 98.5479L262.851 98.6439L244.707 68.2119ZM288.371 99.8919C286.003 99.8919 284.403 99.2839 283.571 98.0679C282.739 96.8519 282.323 95.5079 282.323 94.0359V29.3319C282.323 27.8599 282.739 26.5479 283.571 25.3959C284.403 24.1799 286.003 23.5719 288.371 23.5719H321.779C324.147 23.5719 325.395 25.1719 325.523 28.3719C325.651 31.6359 324.403 33.2679 321.779 33.2679H293.651V90.1959H323.507C325.875 90.1959 327.091 91.7639 327.155 94.8999C327.283 98.2279 326.067 99.8919 323.507 99.8919H288.371ZM318.227 60.1479C318.227 62.3879 317.427 64.2759 315.827 65.8119C314.291 67.3479 312.403 68.1159 310.163 68.1159C307.987 68.1159 306.131 67.3479 304.595 65.8119C303.059 64.2759 302.291 62.3879 302.291 60.1479C302.291 57.9079 303.059 56.0199 304.595 54.4839C306.131 52.9479 307.987 52.1799 310.163 52.1799C312.403 52.1799 314.291 52.9479 315.827 54.4839C317.427 56.0199 318.227 57.9079 318.227 60.1479Z" fill="#E93B69"/>
</svg>
