<svg width="700" height="131" viewBox="0 0 700 131" fill="none" xmlns="http://www.w3.org/2000/svg">
<path d="M52.0015 55.2442C53.6655 55.2442 55.3935 55.5962 57.1855 56.3002C58.9775 57.0042 60.7055 57.9322 62.3695 59.0842H62.2735C63.9375 60.2362 65.2175 61.8042 66.1135 63.7882C67.0095 65.7722 67.4575 68.0442 67.4575 70.6042V83.7562C67.4575 88.9402 65.7295 92.8122 62.2735 95.3722C60.6095 96.5882 58.8815 97.5482 57.0895 98.2522C55.3615 98.8922 53.6655 99.2122 52.0015 99.2122H31.0735C29.4095 99.2122 27.6815 98.8922 25.8895 98.2522C24.1615 97.5482 22.4655 96.5882 20.8015 95.3722C17.3455 92.8122 15.6175 88.9402 15.6175 83.7562V77.4202C15.6175 74.4122 17.5055 72.9082 21.2815 72.9082C25.1215 72.9082 27.0415 74.4122 27.0415 77.4202V82.9882C27.0415 84.6522 27.5215 86.1562 28.4815 87.5002C29.4415 88.8442 31.1055 89.5162 33.4735 89.5162H49.6015C51.9695 89.5162 53.6335 88.8442 54.5935 87.5002C55.5535 86.1562 56.0335 84.6522 56.0335 82.9882V71.3722C56.0335 69.7722 55.5535 68.3002 54.5935 66.9562C53.6335 65.5482 51.9695 64.8442 49.6015 64.8442H31.0735C27.7455 64.8442 24.3215 63.6282 20.8015 61.1962C17.3455 58.5082 15.6175 54.6362 15.6175 49.5802V38.1562C15.6175 35.5962 16.0655 33.3562 16.9615 31.4362C17.8575 29.4522 19.1375 27.8522 20.8015 26.6362H20.7055C22.3695 25.5482 24.0975 24.6522 25.8895 23.9482C27.6815 23.2442 29.4095 22.8922 31.0735 22.8922H52.0015C53.6655 22.8922 55.3935 23.2442 57.1855 23.9482C58.9775 24.6522 60.7055 25.5482 62.3695 26.6362H62.2735C63.9375 27.8522 65.2175 29.4522 66.1135 31.4362C67.0095 33.3562 67.4575 35.5962 67.4575 38.1562V43.8202C67.4575 46.8282 65.5375 48.3322 61.6975 48.3322C57.9215 48.3322 56.0335 46.8282 56.0335 43.8202V39.0202C56.0335 37.4202 55.5535 35.9482 54.5935 34.6042C53.6335 33.2602 51.9695 32.5882 49.6015 32.5882H33.4735C31.1055 32.5882 29.4415 33.2602 28.4815 34.6042C27.5215 35.9482 27.0415 37.4202 27.0415 39.0202V48.8122C27.0415 50.4762 27.5215 51.9802 28.4815 53.3242C29.4415 54.6042 31.1055 55.2442 33.4735 55.2442H52.0015ZM118.843 22.8922C120.507 22.8922 122.235 23.2442 124.027 23.9482C125.819 24.6522 127.547 25.5482 129.211 26.6362H129.115C130.779 27.8522 132.059 29.4522 132.955 31.4362C133.851 33.3562 134.299 35.5962 134.299 38.1562V83.7562C134.299 88.9402 132.571 92.8122 129.115 95.3722C127.451 96.5882 125.723 97.5482 123.931 98.2522C122.203 98.8922 120.507 99.2122 118.843 99.2122H97.915C96.251 99.2122 94.523 98.8922 92.731 98.2522C91.003 97.5482 89.307 96.5882 87.643 95.3722C85.979 94.0922 84.699 92.5242 83.803 90.6682C82.907 88.7482 82.459 86.4442 82.459 83.7562V38.1562C82.459 35.5962 82.907 33.3562 83.803 31.4362C84.699 29.4522 85.979 27.8522 87.643 26.6362H87.547C89.211 25.5482 90.939 24.6522 92.731 23.9482C94.523 23.2442 96.251 22.8922 97.915 22.8922H118.843ZM116.443 89.5162C118.811 89.5162 120.475 88.8442 121.435 87.5002C122.395 86.1562 122.875 84.6522 122.875 82.9882V39.0202C122.875 37.4202 122.395 35.9482 121.435 34.6042C120.475 33.2602 118.811 32.5882 116.443 32.5882H100.315C97.947 32.5882 96.283 33.2602 95.323 34.6042C94.363 35.9482 93.883 37.4202 93.883 39.0202V82.9882C93.883 84.6522 94.363 86.1562 95.323 87.5002C96.283 88.8442 97.947 89.5162 100.315 89.5162H116.443ZM200.58 83.7562C200.58 88.9402 198.852 92.8122 195.396 95.3722C193.732 96.5882 192.004 97.5482 190.212 98.2522C188.484 98.8922 186.788 99.2122 185.124 99.2122H164.196C162.532 99.2122 160.804 98.8922 159.012 98.2522C157.284 97.5482 155.588 96.5882 153.924 95.3722C152.26 94.0922 150.98 92.5242 150.084 90.6682C149.188 88.7482 148.74 86.4442 148.74 83.7562V27.0202C148.74 23.9482 150.628 22.4122 154.404 22.4122C158.244 22.4122 160.164 23.9482 160.164 27.0202V82.9882C160.164 84.6522 160.644 86.1562 161.604 87.5002C162.564 88.8442 164.228 89.5162 166.596 89.5162H182.724C185.092 89.5162 186.756 88.8442 187.716 87.5002C188.676 86.1562 189.156 84.6522 189.156 82.9882V27.0202C189.156 23.9482 191.044 22.4122 194.82 22.4122C198.66 22.4122 200.58 23.9482 200.58 27.0202V83.7562ZM257.833 27.0202C257.833 23.9482 259.721 22.4122 263.497 22.4122C267.273 22.4122 269.161 23.9482 269.161 27.0202V93.2602C269.161 95.5002 267.977 97.1322 265.609 98.1562H265.705C264.681 98.6042 263.593 98.9562 262.441 99.2122C261.289 99.4682 260.169 99.5962 259.081 99.5962C258.249 99.5962 257.385 99.5002 256.489 99.3082C255.593 99.1802 254.729 98.9562 253.897 98.6362C253.129 98.2522 252.393 97.7722 251.689 97.1962C251.049 96.5562 250.537 95.7882 250.153 94.8922L229.321 42.9562L226.729 43.2442V95.0842C226.729 98.1562 224.809 99.6922 220.969 99.6922C217.193 99.6922 215.305 98.1562 215.305 95.0842V28.9402C215.305 26.3162 216.457 24.5562 218.761 23.6602C220.873 22.8282 223.113 22.4122 225.481 22.4122C227.145 22.4122 228.809 22.7642 230.473 23.4682C232.201 24.1082 233.513 25.3562 234.409 27.2122L255.145 79.2442L257.833 78.9562V27.0202ZM317.349 89.5162C319.717 89.5162 321.381 88.8442 322.341 87.5002C323.301 86.1562 323.781 84.6522 323.781 82.9882V39.0202C323.781 37.4202 323.301 35.9482 322.341 34.6042C321.381 33.2602 319.717 32.5882 317.349 32.5882H294.885L294.789 95.1802C294.789 96.5882 294.245 97.7082 293.157 98.5402C292.069 99.3722 290.725 99.7882 289.125 99.7882C285.349 99.7882 283.461 98.2522 283.461 95.1802V28.6522C283.461 26.3482 284.037 24.8122 285.189 24.0442C286.405 23.2762 287.845 22.8922 289.509 22.8922H319.749C321.413 22.8922 323.141 23.2442 324.933 23.9482C326.725 24.6522 328.453 25.5482 330.117 26.6362H330.021C331.685 27.8522 332.965 29.4522 333.861 31.4362C334.757 33.3562 335.205 35.5962 335.205 38.1562V83.7562C335.205 88.9402 333.477 92.8122 330.021 95.3722C328.357 96.5882 326.629 97.5482 324.837 98.2522C323.109 98.8922 321.413 99.2122 319.749 99.2122H303.621C302.533 99.2122 301.669 98.7642 301.029 97.8682C300.453 96.9722 300.165 95.7882 300.165 94.3162C300.165 91.1162 301.541 89.5162 304.293 89.5162H317.349Z" fill="#E93B69"/>
<path d="M402.002 55.2442C403.666 55.2442 405.394 55.5962 407.186 56.3002C408.978 57.0042 410.706 57.9322 412.37 59.0842H412.274C413.938 60.2362 415.218 61.8042 416.114 63.7882C417.01 65.7722 417.458 68.0442 417.458 70.6042V83.7562C417.458 88.9402 415.73 92.8122 412.274 95.3722C410.61 96.5882 408.882 97.5482 407.09 98.2522C405.362 98.8922 403.666 99.2122 402.002 99.2122H381.074C379.41 99.2122 377.682 98.8922 375.89 98.2522C374.162 97.5482 372.466 96.5882 370.802 95.3722C367.346 92.8122 365.618 88.9402 365.618 83.7562V77.4202C365.618 74.4122 367.506 72.9082 371.282 72.9082C375.122 72.9082 377.042 74.4122 377.042 77.4202V82.9882C377.042 84.6522 377.522 86.1562 378.482 87.5002C379.442 88.8442 381.106 89.5162 383.474 89.5162H399.602C401.97 89.5162 403.634 88.8442 404.594 87.5002C405.554 86.1562 406.034 84.6522 406.034 82.9882V71.3722C406.034 69.7722 405.554 68.3002 404.594 66.9562C403.634 65.5482 401.97 64.8442 399.602 64.8442H381.074C377.746 64.8442 374.322 63.6282 370.802 61.1962C367.346 58.5082 365.618 54.6362 365.618 49.5802V38.1562C365.618 35.5962 366.066 33.3562 366.962 31.4362C367.858 29.4522 369.138 27.8522 370.802 26.6362H370.706C372.37 25.5482 374.098 24.6522 375.89 23.9482C377.682 23.2442 379.41 22.8922 381.074 22.8922H402.002C403.666 22.8922 405.394 23.2442 407.186 23.9482C408.978 24.6522 410.706 25.5482 412.37 26.6362H412.274C413.938 27.8522 415.218 29.4522 416.114 31.4362C417.01 33.3562 417.458 35.5962 417.458 38.1562V43.8202C417.458 46.8282 415.538 48.3322 411.698 48.3322C407.922 48.3322 406.034 46.8282 406.034 43.8202V39.0202C406.034 37.4202 405.554 35.9482 404.594 34.6042C403.634 33.2602 401.97 32.5882 399.602 32.5882H383.474C381.106 32.5882 379.442 33.2602 378.482 34.6042C377.522 35.9482 377.042 37.4202 377.042 39.0202V48.8122C377.042 50.4762 377.522 51.9802 378.482 53.3242C379.442 54.6042 381.106 55.2442 383.474 55.2442H402.002ZM468.843 22.8922C470.507 22.8922 472.235 23.2442 474.027 23.9482C475.819 24.6522 477.547 25.5482 479.211 26.6362H479.115C480.779 27.8522 482.059 29.4522 482.955 31.4362C483.851 33.3562 484.299 35.5962 484.299 38.1562V83.7562C484.299 88.9402 482.571 92.8122 479.115 95.3722C477.451 96.5882 475.723 97.5482 473.931 98.2522C472.203 98.8922 470.507 99.2122 468.843 99.2122H447.915C446.251 99.2122 444.523 98.8922 442.731 98.2522C441.003 97.5482 439.307 96.5882 437.643 95.3722C435.979 94.0922 434.699 92.5242 433.803 90.6682C432.907 88.7482 432.459 86.4442 432.459 83.7562V38.1562C432.459 35.5962 432.907 33.3562 433.803 31.4362C434.699 29.4522 435.979 27.8522 437.643 26.6362H437.547C439.211 25.5482 440.939 24.6522 442.731 23.9482C444.523 23.2442 446.251 22.8922 447.915 22.8922H468.843ZM466.443 89.5162C468.811 89.5162 470.475 88.8442 471.435 87.5002C472.395 86.1562 472.875 84.6522 472.875 82.9882V39.0202C472.875 37.4202 472.395 35.9482 471.435 34.6042C470.475 33.2602 468.811 32.5882 466.443 32.5882H450.315C447.947 32.5882 446.283 33.2602 445.323 34.6042C444.363 35.9482 443.883 37.4202 443.883 39.0202V82.9882C443.883 84.6522 444.363 86.1562 445.323 87.5002C446.283 88.8442 447.947 89.5162 450.315 89.5162H466.443ZM550.58 83.7562C550.58 88.9402 548.852 92.8122 545.396 95.3722C543.732 96.5882 542.004 97.5482 540.212 98.2522C538.484 98.8922 536.788 99.2122 535.124 99.2122H514.196C512.532 99.2122 510.804 98.8922 509.012 98.2522C507.284 97.5482 505.588 96.5882 503.924 95.3722C502.26 94.0922 500.98 92.5242 500.084 90.6682C499.188 88.7482 498.74 86.4442 498.74 83.7562V27.0202C498.74 23.9482 500.628 22.4122 504.404 22.4122C508.244 22.4122 510.164 23.9482 510.164 27.0202V82.9882C510.164 84.6522 510.644 86.1562 511.604 87.5002C512.564 88.8442 514.228 89.5162 516.596 89.5162H532.724C535.092 89.5162 536.756 88.8442 537.716 87.5002C538.676 86.1562 539.156 84.6522 539.156 82.9882V27.0202C539.156 23.9482 541.044 22.4122 544.82 22.4122C548.66 22.4122 550.58 23.9482 550.58 27.0202V83.7562ZM607.833 27.0202C607.833 23.9482 609.721 22.4122 613.497 22.4122C617.273 22.4122 619.161 23.9482 619.161 27.0202V93.2602C619.161 95.5002 617.977 97.1322 615.609 98.1562H615.705C614.681 98.6042 613.593 98.9562 612.441 99.2122C611.289 99.4682 610.169 99.5962 609.081 99.5962C608.249 99.5962 607.385 99.5002 606.489 99.3082C605.593 99.1802 604.729 98.9562 603.897 98.6362C603.129 98.2522 602.393 97.7722 601.689 97.1962C601.049 96.5562 600.537 95.7882 600.153 94.8922L579.321 42.9562L576.729 43.2442V95.0842C576.729 98.1562 574.809 99.6922 570.969 99.6922C567.193 99.6922 565.305 98.1562 565.305 95.0842V28.9402C565.305 26.3162 566.457 24.5562 568.761 23.6602C570.873 22.8282 573.113 22.4122 575.481 22.4122C577.145 22.4122 578.809 22.7642 580.473 23.4682C582.201 24.1082 583.513 25.3562 584.409 27.2122L605.145 79.2442L607.833 78.9562V27.0202ZM667.349 89.5162C669.717 89.5162 671.381 88.8442 672.341 87.5002C673.301 86.1562 673.781 84.6522 673.781 82.9882V39.0202C673.781 37.4202 673.301 35.9482 672.341 34.6042C671.381 33.2602 669.717 32.5882 667.349 32.5882H644.885L644.789 95.1802C644.789 96.5882 644.245 97.7082 643.157 98.5402C642.069 99.3722 640.725 99.7882 639.125 99.7882C635.349 99.7882 633.461 98.2522 633.461 95.1802V28.6522C633.461 26.3482 634.037 24.8122 635.189 24.0442C636.405 23.2762 637.845 22.8922 639.509 22.8922H669.749C671.413 22.8922 673.141 23.2442 674.933 23.9482C676.725 24.6522 678.453 25.5482 680.117 26.6362H680.021C681.685 27.8522 682.965 29.4522 683.861 31.4362C684.757 33.3562 685.205 35.5962 685.205 38.1562V83.7562C685.205 88.9402 683.477 92.8122 680.021 95.3722C678.357 96.5882 676.629 97.5482 674.837 98.2522C673.109 98.8922 671.413 99.2122 669.749 99.2122H653.621C652.533 99.2122 651.669 98.7642 651.029 97.8682C650.453 96.9722 650.165 95.7882 650.165 94.3162C650.165 91.1162 651.541 89.5162 654.293 89.5162H667.349Z" fill="#621529"/>
</svg>
